<?xml version="1.0" encoding="utf-8"?>
<!-- Generator: Adobe Illustrator 27.9.6, SVG Export Plug-In . SVG Version: 9.03 Build 54986)  -->
<svg version="1.1" id="Layer_1" xmlns="http://www.w3.org/2000/svg" xmlns:xlink="http://www.w3.org/1999/xlink" x="0px" y="0px"
	 viewBox="0 0 212.9 230.7" style="enable-background:new 0 0 212.9 230.7;" xml:space="preserve">
<style type="text/css">
	.st0{fill:#FFFFFF;}
</style>
<g>
	<path class="st0" d="M106.2,115.9c24.2,0,44-19.7,44-44.1c0-24.4-19.5-44.1-43.9-44.1c-24.4,0-44,19.5-44,44
		C62.3,96,81.9,115.9,106.2,115.9z"/>
	<path class="st0" d="M184.9,159.7c-2.7-20.3-21.5-35.9-42.1-36c-12.1-0.1-24.2-0.1-36.4-0.1c-12.1,0-24.2,0-36.4,0.1
		c-20.5,0.1-39.4,15.7-42.1,36c-1.5,11.4-0.8,23-1,34.6c-0.1,6.5,2.2,8.7,8.6,8.7c23.6,0,47.2,0,70.8,0c23.6,0,47.2,0,70.8,0
		c6.4,0,8.7-2.2,8.6-8.7C185.7,182.7,186.3,171,184.9,159.7z"/>
</g>
</svg>
