<?xml version="1.0" encoding="utf-8"?>
<!-- Generator: Adobe Illustrator 27.9.6, SVG Export Plug-In . SVG Version: 9.03 Build 54986)  -->
<svg version="1.1" xmlns="http://www.w3.org/2000/svg" xmlns:xlink="http://www.w3.org/1999/xlink" x="0px" y="0px"
	 viewBox="0 0 8.8 9.8" style="enable-background:new 0 0 8.8 9.8;" xml:space="preserve">
<style type="text/css">
	.st0{fill:#8E8D8D;}
	.st1{fill:#FFFFFF;}
</style>
<g id="background">
</g>
<g id="Objects">
	<g>
		<path class="st0" d="M6.1,5.8C5.7,6.4,4.4,8,4.4,8S3.1,6.4,2.7,5.8C1.8,4.5,2,3.3,2.8,2.4c0.4-0.4,1-0.7,1.6-0.7S5.6,2,6,2.4
			C6.9,3.3,7,4.5,6.1,5.8z"/>
		<circle class="st1" cx="4.4" cy="4.1" r="1.3"/>
		<path d="M4.4,8.1L4.4,8.1C4.3,8,3,6.5,2.6,5.8c-0.2-0.3-0.4-0.6-0.5-1C2,4.6,2,4.2,2,3.9c0-0.6,0.3-1.1,0.7-1.6
			c0.4-0.4,1-0.7,1.6-0.7c0.6,0,1.2,0.2,1.6,0.7c0.5,0.5,0.7,1,0.7,1.6c0,0.3,0,0.6-0.1,0.9c-0.1,0.3-0.3,0.6-0.5,1h0
			C5.8,6.5,4.5,8,4.4,8.1L4.4,8.1z M4.4,1.8c-0.6,0-1.1,0.2-1.5,0.6C2.7,2.7,2.5,2.9,2.4,3.2C2.3,3.4,2.2,3.7,2.2,4
			c0,0.3,0,0.6,0.1,0.9c0.1,0.3,0.2,0.6,0.4,0.9c0.4,0.5,1.4,1.8,1.7,2.1c0.3-0.3,1.3-1.6,1.7-2.1c0.2-0.3,0.4-0.6,0.4-0.9
			C6.6,4.5,6.6,4.2,6.6,4c0-0.3-0.1-0.5-0.2-0.8C6.3,2.9,6.1,2.7,5.9,2.5C5.5,2.1,5,1.8,4.4,1.8z M6.1,5.8L6.1,5.8L6.1,5.8z"/>
		<path d="M4.4,5.5C3.6,5.5,3,4.9,3,4.1s0.6-1.4,1.4-1.4s1.4,0.6,1.4,1.4S5.2,5.5,4.4,5.5z M4.4,2.8c-0.7,0-1.3,0.6-1.3,1.3
			s0.6,1.3,1.3,1.3s1.3-0.6,1.3-1.3S5.1,2.8,4.4,2.8z"/>
	</g>
</g>
</svg>
