<?xml version="1.0" encoding="utf-8"?>
<!-- Generator: Adobe Illustrator 27.9.6, SVG Export Plug-In . SVG Version: 9.03 Build 54986)  -->
<svg version="1.1" id="Layer_1" xmlns="http://www.w3.org/2000/svg" xmlns:xlink="http://www.w3.org/1999/xlink" x="0px" y="0px"
	 viewBox="0 0 51.8 49.9" style="enable-background:new 0 0 51.8 49.9;" xml:space="preserve">
<style type="text/css">
	.st0{fill:#0089A8;}
	.st1{fill:#99D5EE;}
	.st2{fill:#FFFFFF;}
</style>
<g>
	<g>
		<path class="st0" d="M169.8,16.1L169.8,16.1L169.8,16.1l6.2-6c-0.4-0.6-0.8-1.1-1.1-1.7l-6.5,6.4L169.8,16.1z"/>
	</g>
	<g>
		<path class="st0" d="M177.1,15.4l0.8,0.9l2.5-2.5c-0.6-0.3-1.2-0.7-1.8-1.1l-2.8,2.8C176.3,15.4,176.7,15.4,177.1,15.4z"/>
	</g>
	<g>
		<rect x="180.6" y="17.3" transform="matrix(0.7123 -0.7019 0.7019 0.7123 39.662 133.2697)" class="st0" width="3.6" height="2"/>
	</g>
	<g>
		<path class="st0" d="M185.9,16.3l1.4-1.3c-0.9,0.1-1.8,0.1-2.7,0L185.9,16.3z"/>
	</g>
	<g>
		<rect x="176.6" y="21.2" transform="matrix(0.7121 -0.702 0.702 0.7121 35.7402 131.6443)" class="st0" width="3.6" height="2"/>
	</g>
	<g>
		<rect x="172.7" y="17.2" transform="matrix(0.7122 -0.702 0.702 0.7122 37.4676 127.7289)" class="st0" width="3.6" height="2"/>
	</g>
	<g>
		<path class="st0" d="M198.2,15.5l-3.1-3.1l-2.6,2.6l3,3.1l0.1,0.1l0.1,0.1c0.3,0.3,0.8,0.5,1.2,0.5c0.5,0,0.9-0.2,1.3-0.5
			c0.4-0.3,0.5-0.8,0.5-1.3C198.7,16.3,198.5,15.9,198.2,15.5L198.2,15.5L198.2,15.5z"/>
	</g>
	<g>
		<path class="st0" d="M184.2,25.4l-1.2-1.2l-2.6,2.6l1.1,1.1l0.1,0.1l0.1,0.1c0.7,0.6,1.8,0.6,2.5-0.1
			C184.9,27.3,184.9,26.2,184.2,25.4L184.2,25.4L184.2,25.4z"/>
	</g>
	<g>
		<path class="st0" d="M164.1,10.3c0.2,0.2,0.3,0.4,0.5,0.6c0.1,0.1,0.3,0.3,0.4,0.4l0.1,0.1l0.7,0.7l7.7-7.6l4.8-4.7l0,0l2.1-2
			l0.1-0.1c0-0.1,0.1-0.1,0.1-0.2c0.1-0.1,0.1-0.1,0.2-0.2l0.1-0.1c0-0.1,0.1-0.2,0.2-0.2c0.3-0.3,0.8-0.3,1.1,0l0,0l5.8,5.9
			l1.2,1.2c0.3,0.4,0.8,0.6,1.3,0.6c1,0,1.8-0.8,1.8-1.8c0-0.5-0.2-1-0.5-1.3l0,0l-7.2-7.4l0,0l0,0c-1.2-1.3-2.7-2.2-4.2-2.8
			c-1.4-0.6-2.8-0.9-4.3-0.9c-0.5,0-1,0-1.5,0.1c-0.5,0-0.9,0.1-1.4,0.2c-0.9,0-1.8-0.4-2.5-1.1l-1.6-1.6L158.7-1.6l1.5,1.5l0.9,0.9
			c0.4,0.6,0.6,1.4,0.6,2.1v0.2c0,0.6,0,1.3,0.1,1.9c0.2,1.8,1,3.6,2.2,5.1l0,0L164.1,10.3z"/>
	</g>
	<g>
		<path class="st0" d="M187,20.3l-2.6,2.6l3.1,3.1l0.1,0.1l0.1,0.1c0.3,0.3,0.8,0.5,1.2,0.5c0.5,0,1-0.2,1.3-0.5
			c0.4-0.4,0.5-0.8,0.5-1.3s-0.2-0.9-0.5-1.2l-0.1-0.1l0,0l0,0l0,0L187,20.3z"/>
	</g>
	<g>
		<path class="st0" d="M190.1,23.4L190.1,23.4L190.1,23.4z"/>
	</g>
	<g>
		<path class="st0" d="M195,20.3l-3.9-4l-2.6,2.6l3.9,4l0,0c0.7,0.7,1.9,0.7,2.6,0C195.7,22.2,195.8,21.1,195,20.3L195,20.3z"/>
	</g>
	<g>
		<path class="st1" d="M201.6-0.3l1.5-1.5l-10.2-10.4l-1.6,1.6c-0.7,0.7-1.6,1-2.5,1c-0.5-0.1-0.9-0.2-1.4-0.2
			c-0.5-0.1-1-0.1-1.5-0.1c-1.9,0-3.7,0.5-5.4,1.3c1.5,0.6,3,1.5,4.2,2.8l0,0l0,0l7.2,7.4l0,0c0.3,0.3,0.5,0.8,0.5,1.3
			c0,1-0.8,1.8-1.8,1.8c-0.5,0-1-0.2-1.3-0.6L188.1,3l-5.8-5.9l0,0c-0.3-0.3-0.8-0.3-1.1,0c-0.1,0.1-0.1,0.2-0.2,0.2l-0.1,0.1
			c-0.1,0.1-0.1,0.1-0.2,0.2c0,0.1-0.1,0.1-0.1,0.2l-0.1,0.1l-2.1,2l0,0l-4.8,4.7l-7.7,7.6l-2.6,2.6l0,0l0,0
			c-0.3,0.4-0.5,0.8-0.5,1.3c0,0.5,0.2,0.9,0.5,1.3c0.4,0.4,0.8,0.5,1.3,0.5c0.4,0,0.9-0.1,1.2-0.5l0.1-0.1l0.1-0.1l2.6-2.5l6.5-6.4
			c0.3,0.6,0.7,1.2,1.1,1.7l-6.1,6l-3.5,3.4l-0.1,0.1c-0.7,0.7-0.7,1.9,0,2.6s1.9,0.7,2.6,0l0,0l3.5-3.4l2.6-2.6l0.8-0.8l2.8-2.8
			c0.6,0.4,1.2,0.8,1.8,1.1l-2.5,2.5l-1.4,1.4l-2.6,2.6l-2.6,2.6l0,0l-0.1,0.1c-0.3,0.3-0.5,0.8-0.5,1.2c0,0.5,0.2,1,0.5,1.3
			c0.4,0.4,0.8,0.5,1.3,0.5c0.4,0,0.8-0.2,1.2-0.5l0.1-0.1l0.1-0.1l2.6-2.6l2.6-2.6l1.4-1.4l2.6-2.6l1.4-1.3c0.1,0,0.1,0,0.2,0
			c0.9,0.1,1.8,0.1,2.7,0l-1.4,1.3l-1.4,1.4l-2.6,2.6l-1.4,1.4l-2.6,2.6l-0.7,0.7l0,0l0,0c-0.7,0.7-0.7,1.9,0,2.6s1.7,0.7,2.5,0.1
			l0.1-0.1l0.1-0.1l0.6-0.6l2.6-2.6l1.4-1.4l2.6-2.6l1.4-1.4l2.6-2.6l0.6-0.6l0,0l0.9-0.8l2.6-2.6l1.2-1.2c0.2-0.2,0.4-0.3,0.6-0.5
			c0.2-0.2,0.4-0.4,0.5-0.6l0.2-0.2l0,0c1.2-1.5,2-3.2,2.2-5c0.1-0.6,0.1-1.3,0.1-1.9V2.3c0-0.7,0.2-1.5,0.7-2.1L201.6-0.3z"/>
	</g>
</g>
<g>
	<g>
		<path class="st0" d="M7.1,21.4c0,0.2,0.1,0.5,0.4,0.5h2.4c0.2,0,0.3-0.1,0.4-0.3c1.1-5.8,5.8-10.4,11.7-11.5
			c0.2,0,0.3-0.2,0.3-0.4V7.3c0-0.2-0.2-0.4-0.5-0.4C14.3,8.1,8.5,14,7.1,21.4z"/>
	</g>
	<g>
		<path class="st0" d="M41.8,28.1c-0.2,0-0.3,0.1-0.4,0.3c-1,6-5.8,10.8-11.9,11.9c-0.2,0-0.3,0.2-0.3,0.4v2.4
			c0,0.2,0.2,0.4,0.5,0.4c7.8-1.2,13.8-7.3,15-15c0-0.2-0.2-0.4-0.4-0.4H41.8z"/>
	</g>
	<g>
		<path class="st1" d="M36.1,28.1c-0.2,0-0.3,0.1-0.4,0.3c-0.8,3-3.3,5.4-6.3,6.4c-0.2,0-0.3,0.2-0.3,0.4v2.4c0,0.3,0.2,0.4,0.5,0.4
			c4.7-1,8.2-4.7,9.3-9.4c0.1-0.2-0.1-0.5-0.4-0.5C38.6,28.1,36.1,28.1,36.1,28.1z"/>
	</g>
	<path class="st0" d="M45.6,24c-0.3-0.3-0.7-0.5-1.1-0.5H32.1c-0.6-2.4-2.5-4.3-4.9-4.9V6.2c0-0.8-0.7-1.5-1.6-1.5
		c-0.8,0-1.5,0.7-1.5,1.5v12.5c-2.4,0.6-4.3,2.4-4.9,4.9H7c-0.8,0-1.5,0.7-1.5,1.5c0,0.4,0.2,0.7,0.5,1.1c0.3,0.3,0.7,0.5,1.1,0.5
		h12.3c0.6,2.4,2.4,4.2,4.9,4.9v12.1c0,0.8,0.7,1.5,1.6,1.5l0,0l0,0c0.4,0,0.8-0.2,1.1-0.5c0.3-0.3,0.5-0.7,0.5-1.1V31.5
		c2.4-0.6,4.3-2.4,4.9-4.9h12.4c0.8,0,1.6-0.7,1.6-1.5C46.1,24.8,45.9,24.4,45.6,24z M25.8,30c-2.6,0-4.8-2.2-4.8-4.8
		s2.2-4.8,4.8-4.8s4.8,2.2,4.8,4.8S28.4,30,25.8,30z"/>
	<g>
		<path class="st0" d="M29.7,6.8c-0.2,0-0.5,0.2-0.5,0.4v2.4c0,0.2,0.1,0.3,0.3,0.4c6,1.1,10.8,5.7,11.9,11.6c0,0.2,0.2,0.3,0.4,0.3
			h2.5c0.2,0,0.4-0.2,0.4-0.5C43.3,13.9,37.4,8,29.7,6.8z"/>
	</g>
	<g>
		<path class="st1" d="M29.2,12.8v2.4c0,0.2,0.1,0.3,0.3,0.4c3,0.8,5.3,3.2,6.2,6.1c0.1,0.2,0.2,0.3,0.4,0.3h2.5
			c0.3,0,0.4-0.2,0.4-0.5c-1.1-4.5-4.7-8-9.2-9.1C29.4,12.4,29.2,12.6,29.2,12.8z"/>
	</g>
	<g>
		<path class="st1" d="M16,28.4c-0.1-0.2-0.2-0.3-0.4-0.3h-2.5c-0.3,0-0.4,0.2-0.4,0.5c1,4.5,4.7,8,9.3,9.1c0.2,0.1,0.5-0.1,0.5-0.4
			v-2.4c0-0.2-0.1-0.3-0.3-0.4C19.3,33.7,17,31.3,16,28.4z"/>
	</g>
	<g>
		<path class="st0" d="M10.3,28.4c0-0.2-0.2-0.3-0.4-0.3H7.5c-0.2,0-0.4,0.2-0.4,0.5c1.2,7.6,7.3,13.6,15,14.7
			c0.2,0,0.5-0.2,0.5-0.4v-2.4c0-0.2-0.1-0.3-0.3-0.4C16.2,39,11.4,34.3,10.3,28.4z"/>
	</g>
	<g>
		<path class="st1" d="M21.9,12.5c-4.5,1.1-8,4.5-9.1,8.9c-0.1,0.2,0.1,0.5,0.4,0.5h2.5c0.2,0,0.3-0.1,0.4-0.3c0.9-2.8,3.2-5.1,6-6
			c0.2-0.1,0.3-0.2,0.3-0.4v-2.4C22.4,12.6,22.1,12.4,21.9,12.5z"/>
	</g>
	<g>
		<path class="st2" d="M21,25.2c0,2.6,2.2,4.8,4.8,4.8s4.8-2.2,4.8-4.8s-2.2-4.8-4.8-4.8C23.1,20.6,21,22.6,21,25.2z"/>
	</g>
</g>
</svg>
