<?xml version="1.0" encoding="utf-8"?>
<!-- Generator: Adobe Illustrator 27.9.6, SVG Export Plug-In . SVG Version: 9.03 Build 54986)  -->
<svg version="1.1" id="Layer_1" xmlns="http://www.w3.org/2000/svg" xmlns:xlink="http://www.w3.org/1999/xlink" x="0px" y="0px"
	 viewBox="0 0 51.8 49.9" style="enable-background:new 0 0 51.8 49.9;" xml:space="preserve">
<style type="text/css">
	.st0{fill:#0089A8;}
	.st1{fill:#99D5EE;}
	.st2{fill:#FFFFFF;}
</style>
<g>
	<g>
		<path class="st0" d="M169.8,16.1L169.8,16.1L169.8,16.1l6.2-6c-0.4-0.6-0.8-1.1-1.1-1.7l-6.5,6.4L169.8,16.1z"/>
	</g>
	<g>
		<path class="st0" d="M177.1,15.4l0.8,0.9l2.5-2.5c-0.6-0.3-1.2-0.7-1.8-1.1l-2.8,2.8C176.3,15.4,176.7,15.4,177.1,15.4z"/>
	</g>
	<g>
		<rect x="180.6" y="17.2" transform="matrix(0.7123 -0.7019 0.7019 0.7123 39.6917 133.319)" class="st0" width="3.6" height="2"/>
	</g>
	<g>
		<path class="st0" d="M185.9,16.3l1.4-1.3c-0.9,0.1-1.8,0.1-2.7,0L185.9,16.3z"/>
	</g>
	<g>
		<rect x="176.6" y="21.2" transform="matrix(0.7121 -0.702 0.702 0.7121 35.7748 131.6685)" class="st0" width="3.6" height="2"/>
	</g>
	<g>
		<rect x="172.7" y="17.2" transform="matrix(0.7122 -0.702 0.702 0.7122 37.4474 127.7086)" class="st0" width="3.6" height="2"/>
	</g>
	<g>
		<path class="st0" d="M198.2,15.5l-3.1-3.1l-2.6,2.6l3,3.1l0.1,0.1l0.1,0.1c0.3,0.3,0.8,0.5,1.2,0.5c0.5,0,0.9-0.2,1.3-0.5
			c0.4-0.3,0.5-0.8,0.5-1.3C198.7,16.3,198.5,15.9,198.2,15.5L198.2,15.5L198.2,15.5z"/>
	</g>
	<g>
		<path class="st0" d="M184.2,25.4l-1.2-1.2l-2.6,2.6l1.1,1.1l0.1,0.1l0.1,0.1c0.7,0.6,1.8,0.6,2.5-0.1
			C184.9,27.3,184.9,26.2,184.2,25.4L184.2,25.4L184.2,25.4z"/>
	</g>
	<g>
		<path class="st0" d="M164.1,10.3c0.2,0.2,0.3,0.4,0.5,0.6c0.1,0.1,0.3,0.3,0.4,0.4c0,0,0.1,0.1,0.1,0.1l0.7,0.7l7.7-7.6l4.8-4.7
			l0,0l2.1-2l0.1-0.1c0-0.1,0.1-0.1,0.1-0.2c0.1-0.1,0.1-0.1,0.2-0.2l0.1-0.1c0-0.1,0.1-0.2,0.2-0.2c0.3-0.3,0.8-0.3,1.1,0l0,0
			l5.8,5.9l1.2,1.2c0.3,0.4,0.8,0.6,1.3,0.6c1,0,1.8-0.8,1.8-1.8c0-0.5-0.2-1-0.5-1.3l0,0l-7.2-7.4l0,0l0,0
			c-1.2-1.3-2.7-2.2-4.2-2.8c-1.4-0.6-2.8-0.9-4.3-0.9c-0.5,0-1,0-1.5,0.1c-0.5,0-0.9,0.1-1.4,0.2c-0.9,0-1.8-0.4-2.5-1.1l-1.6-1.6
			L158.7-1.6l1.5,1.5l0.9,0.9c0.4,0.6,0.6,1.4,0.6,2.1l0,0.2c0,0.6,0,1.3,0.1,1.9c0.2,1.8,1,3.6,2.2,5.1l0,0L164.1,10.3z"/>
	</g>
	<g>
		<path class="st0" d="M187,20.3l-2.6,2.6l3.1,3.1l0.1,0.1l0.1,0.1c0.3,0.3,0.8,0.5,1.2,0.5c0.5,0,1-0.2,1.3-0.5
			c0.4-0.4,0.5-0.8,0.5-1.3c0-0.5-0.2-0.9-0.5-1.2l-0.1-0.1l0,0l0,0l0,0L187,20.3z"/>
	</g>
	<g>
		<polygon class="st0" points="190.1,23.4 190.1,23.4 190.1,23.4 		"/>
	</g>
	<g>
		<path class="st0" d="M195,20.3l-3.9-4l-2.6,2.6l3.9,4l0,0c0.7,0.7,1.9,0.7,2.6,0C195.7,22.2,195.8,21.1,195,20.3L195,20.3z"/>
	</g>
	<g>
		<path class="st1" d="M201.6-0.3l1.5-1.5l-10.2-10.4l-1.6,1.6c-0.7,0.7-1.6,1-2.5,1c-0.5-0.1-0.9-0.2-1.4-0.2
			c-0.5-0.1-1-0.1-1.5-0.1c-1.9,0-3.7,0.5-5.4,1.3c1.5,0.6,3,1.5,4.2,2.8l0,0l0,0l7.2,7.4l0,0c0.3,0.3,0.5,0.8,0.5,1.3
			c0,1-0.8,1.8-1.8,1.8c-0.5,0-1-0.2-1.3-0.6L188.1,3l-5.8-5.9l0,0c-0.3-0.3-0.8-0.3-1.1,0c-0.1,0.1-0.1,0.2-0.2,0.2l-0.1,0.1
			c-0.1,0.1-0.1,0.1-0.2,0.2c0,0.1-0.1,0.1-0.1,0.2l-0.1,0.1l-2.1,2l0,0l-4.8,4.7l-7.7,7.6l-2.6,2.6l0,0l0,0
			c-0.3,0.4-0.5,0.8-0.5,1.3c0,0.5,0.2,0.9,0.5,1.3c0.4,0.4,0.8,0.5,1.3,0.5c0.4,0,0.9-0.1,1.2-0.5l0.1-0.1l0.1-0.1l2.6-2.5l6.5-6.4
			c0.3,0.6,0.7,1.2,1.1,1.7l-6.1,6l-3.5,3.4l-0.1,0.1c-0.7,0.7-0.7,1.9,0,2.6c0.7,0.7,1.9,0.7,2.6,0l0,0l3.5-3.4l2.6-2.6l0.8-0.8
			l2.8-2.8c0.6,0.4,1.2,0.8,1.8,1.1l-2.5,2.5l-1.4,1.4l-2.6,2.6l-2.6,2.6l0,0l-0.1,0.1c-0.3,0.3-0.5,0.8-0.5,1.2
			c0,0.5,0.2,1,0.5,1.3c0.4,0.4,0.8,0.5,1.3,0.5c0.4,0,0.8-0.2,1.2-0.5l0.1-0.1l0.1-0.1l2.6-2.6l2.6-2.6l1.4-1.4l2.6-2.6l1.4-1.3
			c0.1,0,0.1,0,0.2,0c0.9,0.1,1.8,0.1,2.7,0l-1.4,1.3l-1.4,1.4l-2.6,2.6l-1.4,1.4l-2.6,2.6l-0.7,0.7l0,0l0,0c-0.7,0.7-0.7,1.9,0,2.6
			c0.7,0.7,1.7,0.7,2.5,0.1l0.1-0.1l0.1-0.1l0.6-0.6l2.6-2.6l1.4-1.4l2.6-2.6l1.4-1.4l2.6-2.6l0.6-0.6l0,0l0.9-0.8l2.6-2.6l1.2-1.2
			c0.2-0.2,0.4-0.3,0.6-0.5c0.2-0.2,0.4-0.4,0.5-0.6l0.2-0.2l0,0c1.2-1.5,2-3.2,2.2-5c0.1-0.6,0.1-1.3,0.1-1.9l0-0.2
			c0-0.7,0.2-1.5,0.7-2.1L201.6-0.3z"/>
	</g>
</g>
<g>
	<g>
		<path class="st0" d="M105.3-59.8c0,0.2,0.1,0.5,0.4,0.5h2.6c0.2,0,0.3-0.1,0.4-0.3c1.2-6.2,6.2-11.1,12.5-12.3
			c0.2,0,0.3-0.2,0.3-0.4V-75c0-0.2-0.2-0.4-0.5-0.4C113-74,106.6-67.7,105.3-59.8z"/>
	</g>
	<g>
		<path class="st0" d="M142.3-52.6c-0.2,0-0.3,0.1-0.4,0.3c-1.1,6.4-6.2,11.5-12.7,12.7c-0.2,0-0.3,0.2-0.3,0.4v2.6
			c0,0.2,0.2,0.4,0.5,0.4c8.3-1.3,14.8-7.8,16-16c0-0.2-0.2-0.4-0.4-0.4H142.3z"/>
	</g>
	<g>
		<path class="st1" d="M136.2-52.6c-0.2,0-0.3,0.1-0.4,0.3c-0.9,3.2-3.5,5.8-6.7,6.8c-0.2,0-0.3,0.2-0.3,0.4v2.6
			c0,0.3,0.2,0.4,0.5,0.4c5-1.1,8.8-5,9.9-10c0.1-0.2-0.1-0.5-0.4-0.5H136.2z"/>
	</g>
	<path class="st0" d="M146.4-57c-0.3-0.3-0.7-0.5-1.2-0.5l-13.2,0c-0.6-2.6-2.7-4.6-5.2-5.2V-76c0-0.9-0.7-1.6-1.7-1.6
		c-0.9,0-1.6,0.7-1.6,1.6v13.4c-2.6,0.6-4.6,2.6-5.2,5.2l-13.1,0c-0.9,0-1.6,0.7-1.6,1.6c0,0.4,0.2,0.8,0.5,1.2
		c0.3,0.3,0.7,0.5,1.2,0.5l13.1,0c0.6,2.6,2.6,4.5,5.2,5.2v12.9c0,0.9,0.7,1.6,1.7,1.6h0h0c0.4,0,0.9-0.2,1.2-0.5
		c0.3-0.3,0.5-0.7,0.5-1.2V-49c2.6-0.6,4.6-2.6,5.2-5.2l13.2,0c0.9,0,1.7-0.7,1.7-1.6C146.9-56.3,146.7-56.7,146.4-57z M125.2-50.6
		c-2.8,0-5.1-2.3-5.1-5.1c0-2.8,2.3-5.1,5.1-5.1c2.8,0,5.1,2.3,5.1,5.1C130.3-52.9,128-50.6,125.2-50.6z"/>
	<g>
		<path class="st0" d="M129.3-75.4c-0.2,0-0.5,0.2-0.5,0.4v2.6c0,0.2,0.1,0.3,0.3,0.4c6.4,1.2,11.5,6.1,12.7,12.4
			c0,0.2,0.2,0.3,0.4,0.3h2.7c0.2,0,0.4-0.2,0.4-0.5C144-67.8,137.5-74.1,129.3-75.4z"/>
	</g>
	<g>
		<path class="st1" d="M128.9-69v2.6c0,0.2,0.1,0.3,0.3,0.4c3.2,0.9,5.7,3.4,6.6,6.5c0.1,0.2,0.2,0.3,0.4,0.3h2.7
			c0.3,0,0.4-0.2,0.4-0.5c-1.2-4.8-5-8.5-9.8-9.7C129.1-69.4,128.9-69.2,128.9-69z"/>
	</g>
	<g>
		<path class="st1" d="M114.8-52.4c-0.1-0.2-0.2-0.3-0.4-0.3h-2.7c-0.3,0-0.4,0.2-0.4,0.5c1.1,4.8,5,8.6,9.9,9.7
			c0.2,0.1,0.5-0.1,0.5-0.4v-2.6c0-0.2-0.1-0.3-0.3-0.4C118.3-46.8,115.7-49.2,114.8-52.4z"/>
	</g>
	<g>
		<path class="st0" d="M108.7-52.3c0-0.2-0.2-0.3-0.4-0.3h-2.6c-0.2,0-0.4,0.2-0.4,0.5c1.3,8.1,7.8,14.5,16,15.7
			c0.2,0,0.5-0.2,0.5-0.4v-2.6c0-0.2-0.1-0.3-0.3-0.4C115-41,109.9-46,108.7-52.3z"/>
	</g>
	<g>
		<path class="st1" d="M121.1-69.3c-4.8,1.2-8.5,4.8-9.7,9.5c-0.1,0.2,0.1,0.5,0.4,0.5h2.7c0.2,0,0.3-0.1,0.4-0.3
			c1-3,3.4-5.4,6.4-6.4c0.2-0.1,0.3-0.2,0.3-0.4v-2.6C121.5-69.2,121.3-69.4,121.1-69.3z"/>
	</g>
	<g>
		<path class="st2" d="M120.1-55.7c0,2.8,2.3,5.1,5.1,5.1c2.8,0,5.1-2.3,5.1-5.1c0-2.8-2.3-5.1-5.1-5.1
			C122.4-60.8,120.1-58.5,120.1-55.7z"/>
	</g>
</g>
<g>
	<g>
		<path class="st0" d="M16.4,44.2c0,1.4,3.9,2.9,9.5,2.9c5.6,0,9.5-1.5,9.5-2.9c0-1.2-3.1-2.6-7.7-2.9v1.3c0,0.9-0.8,1.7-1.7,1.7
			c-0.9,0-1.7-0.8-1.7-1.7v-1.3C19.6,41.6,16.4,42.9,16.4,44.2z"/>
	</g>
	<g>
		<path class="st1" d="M43.2,6.5c0-0.2-0.2-0.4-0.4-0.5c-0.2-0.1-0.5-0.1-0.6,0l-4.4,2.9c0-0.3,0-0.5,0-0.8H14.1c0,0.3,0,0.5,0,0.8
			L9.7,6C9.5,5.9,9.2,5.9,9,6C8.8,6.1,8.7,6.3,8.7,6.5c0,0,0,0.6,0,1.6c0,2.8,0.3,8.8,2.6,14.3c1.1,2.7,2.8,5.3,5.2,7.2
			c2,1.6,4.6,2.7,7.8,3c0.1,0,0.3,0,0.4,0v8.2v0.4v1.3c0,0.7,0.6,1.3,1.3,1.3c0.7,0,1.3-0.6,1.3-1.3v-1.3v-0.4v-8.2
			c0.1,0,0.3,0,0.4,0c3.2-0.3,5.8-1.4,7.8-3c3.6-2.9,5.5-7.2,6.6-11.3c1-4.1,1.2-8.1,1.2-10.2C43.2,7.1,43.2,6.6,43.2,6.5z"/>
	</g>
	<path class="st2" d="M14.5,11.7c-0.5,0-1-0.4-1.3-0.7c-0.6-0.5-1.2-0.9-1.9-1.3c-0.3-0.1-0.6-0.2-0.8-0.4c0,2.1,0.3,5.3,1.1,8.7
		c1,3.8,2.7,7.8,5.9,10.3c1.4,1.1,3,1.9,5,2.4C18.1,28,14.9,20.6,14.5,11.7z"/>
	<g>
		<polygon class="st0" points="25.9,21.9 21.5,24.2 22.3,19.4 18.7,16 23.7,15.2 25.9,10.9 28.1,15.2 33.1,16 29.5,19.4 30.3,24.2 
					"/>
	</g>
	<path class="st2" d="M41.4,8.9l-3.7,2.4c-0.1,0.1-0.2,0.1-0.4,0.1c-0.2,9.4-3.5,17.3-8,19.9c2-0.4,3.6-1.3,5-2.4
		c2.1-1.7,3.6-4,4.6-6.4c2.1-5,2.4-10.7,2.4-13.3C41.4,9.1,41.4,9,41.4,8.9z"/>
	<g>
		<path class="st0" d="M37.7,5.5c0,1.5-1.2,2.6-2.6,2.6H15.7c-1.5,0-2.6-1.2-2.6-2.6c0-1.5,1.2-2.6,2.6-2.6h19.3
			C36.5,2.8,37.7,4,37.7,5.5z"/>
	</g>
</g>
</svg>
