<?xml version="1.0" encoding="utf-8"?>
<!-- Generator: Adobe Illustrator 27.9.6, SVG Export Plug-In . SVG Version: 9.03 Build 54986)  -->
<svg version="1.1" id="Layer_1" xmlns="http://www.w3.org/2000/svg" xmlns:xlink="http://www.w3.org/1999/xlink" x="0px" y="0px"
	 viewBox="0 0 595.3 841.9" style="enable-background:new 0 0 595.3 841.9;" xml:space="preserve">
<style type="text/css">
	.st0{fill:#FFFFFF;}
</style>
<g>
	<g>
		<polygon class="st0" points="123.5,389.6 131.9,413 156.7,413.8 137.1,429 144,452.9 123.5,439 102.9,452.9 109.8,429 90.2,413.8 
			115,413 		"/>
	</g>
	<g>
		<polygon class="st0" points="210.7,389.6 219.1,413 243.9,413.8 224.3,429 231.2,452.9 210.7,439 190.1,452.9 197,429 
			177.4,413.8 202.2,413 		"/>
	</g>
	<g>
		<polygon class="st0" points="297.8,389.6 306.3,413 331.1,413.8 311.5,429 318.4,452.9 297.8,439 277.3,452.9 284.2,429 
			264.6,413.8 289.4,413 		"/>
	</g>
	<g>
		<polygon class="st0" points="385,389.6 393.5,413 418.3,413.8 398.7,429 405.6,452.9 385,439 364.5,452.9 371.4,429 351.8,413.8 
			376.6,413 		"/>
	</g>
	<g>
		<polygon class="st0" points="472.2,389.6 480.7,413 505.5,413.8 485.9,429 492.8,452.9 472.2,439 451.7,452.9 458.6,429 
			439,413.8 463.8,413 		"/>
	</g>
</g>
</svg>
