<?xml version="1.0" encoding="utf-8"?>
<!-- Generator: Adobe Illustrator 27.9.6, SVG Export Plug-In . SVG Version: 9.03 Build 54986)  -->
<svg version="1.1" id="Layer_1" xmlns="http://www.w3.org/2000/svg" xmlns:xlink="http://www.w3.org/1999/xlink" x="0px" y="0px"
	 viewBox="0 0 379.9 75" style="enable-background:new 0 0 379.9 75;" xml:space="preserve">
<style type="text/css">
	.st0{fill:#F9CA03;}
	.st1{fill:#EDEDED;}
</style>
<g>
	<path class="st0" d="M37.1,9.1l7.5,20.6l21.9,0.7L49.2,44l6.1,21L37.1,52.7L18.9,65L25,44L7.7,30.4l21.9-0.7L37.1,9.1z"/>
	<path class="st0" d="M114.3,9.1l7.4,20.6l21.9,0.7L126.3,44l6.1,21l-18.1-12.3L96,65l6.1-21L84.8,30.4l21.9-0.7L114.3,9.1z"/>
	<path class="st0" d="M191.4,9.1l7.4,20.6l21.9,0.7L203.4,44l6.1,21l-18.1-12.3L173.2,65l6.1-21l-17.4-13.6l22-0.7L191.4,9.1z"/>
	<path class="st0" d="M268.5,9.1l7.4,20.6l22,0.7L280.5,44l6.1,21l-18.1-12.3L250.3,65l6.1-21l-17.3-13.6l21.9-0.7L268.5,9.1z"/>
	<path class="st1" d="M345.6,9.1l7.5,20.6l21.9,0.7L357.7,44l6.1,21l-18.2-12.3L327.4,65l6.1-21l-17.3-13.6l21.9-0.7L345.6,9.1z"/>
</g>
</svg>
