<?xml version="1.0" encoding="utf-8"?>
<!-- Generator: Adobe Illustrator 27.9.6, SVG Export Plug-In . SVG Version: 9.03 Build 54986)  -->
<svg version="1.1" id="Layer_1" xmlns="http://www.w3.org/2000/svg" xmlns:xlink="http://www.w3.org/1999/xlink" x="0px" y="0px"
	 viewBox="0 0 1630.4 1630.4" style="enable-background:new 0 0 1630.4 1630.4;" xml:space="preserve">
<style type="text/css">
	.st0{fill:#FFFFFF;}
</style>
<g>
	<path d="M288.7-1.2h1052.9c160.2,0,290,129.8,290,290v1052.8c0,160.2-129.8,290-290,290H288.7c-160.2,0-290-129.8-290-290V288.8
		C-1.3,128.6,128.5-1.2,288.7-1.2z"/>
	<g id="Background">
	</g>
	<g id="Objects">
		<path class="st0" d="M815.2,323.6c-272.6,0-493.5,220.1-493.5,491.6s221,491.6,493.5,491.6c272.6,0,493.5-220.1,493.5-491.6
			S1087.7,323.6,815.2,323.6z M1010.4,875.2l-238.9,167.4c-48.8,34.2-116-0.6-116-60V647.8c0-59.4,67.2-94.2,116-60l238.9,167.5
			C1052.1,784.5,1052.1,846,1010.4,875.2z"/>
	</g>
</g>
</svg>
