<?xml version="1.0" encoding="utf-8"?>
<!-- Generator: Adobe Illustrator 27.9.6, SVG Export Plug-In . SVG Version: 9.03 Build 54986)  -->
<svg version="1.1" id="Layer_1" xmlns="http://www.w3.org/2000/svg" xmlns:xlink="http://www.w3.org/1999/xlink" x="0px" y="0px"
	 viewBox="0 0 51.8 49.9" style="enable-background:new 0 0 51.8 49.9;" xml:space="preserve">
<style type="text/css">
	.st0{fill:#0089A8;}
	.st1{fill:#99D5EE;}
</style>
<g>
	<g>
		<path class="st0" d="M13.6,33.6L13.6,33.6L13.6,33.6l6.2-6c-0.4-0.6-0.8-1.1-1.1-1.7l-6.5,6.4L13.6,33.6z"/>
	</g>
	<g>
		<path class="st0" d="M20.9,32.9l0.8,0.9l2.5-2.5c-0.6-0.3-1.2-0.7-1.8-1.1l-2.8,2.8C20.1,32.9,20.5,32.9,20.9,32.9z"/>
	</g>
	<g>
		<rect x="24.4" y="34.8" transform="matrix(0.7123 -0.7019 0.7019 0.7123 -17.5435 28.7234)" class="st0" width="3.6" height="2"/>
	</g>
	<g>
		<path class="st0" d="M29.7,33.8l1.4-1.3c-0.9,0.1-1.8,0.1-2.7,0L29.7,33.8z"/>
	</g>
	<g>
		<rect x="20.4" y="38.7" transform="matrix(0.7121 -0.702 0.702 0.7121 -21.4896 27.0492)" class="st0" width="3.6" height="2"/>
	</g>
	<g>
		<rect x="16.4" y="34.7" transform="matrix(0.7122 -0.702 0.702 0.7122 -19.8036 23.1002)" class="st0" width="3.6" height="2"/>
	</g>
	<g>
		<path class="st0" d="M41.9,33l-3.1-3.1l-2.6,2.6l3,3.1l0.1,0.1l0.1,0.1c0.3,0.3,0.8,0.5,1.2,0.5c0.5,0,0.9-0.2,1.3-0.5
			c0.4-0.3,0.5-0.8,0.5-1.3C42.5,33.8,42.3,33.4,41.9,33L41.9,33L41.9,33z"/>
	</g>
	<g>
		<path class="st0" d="M28,43l-1.2-1.2l-2.6,2.6l1.1,1.1l0.1,0.1l0.1,0.1c0.7,0.6,1.8,0.6,2.5-0.1C28.7,44.8,28.7,43.7,28,43L28,43
			L28,43z"/>
	</g>
	<g>
		<path class="st0" d="M7.9,27.8c0.2,0.2,0.3,0.4,0.5,0.6c0.1,0.1,0.3,0.3,0.4,0.4c0,0,0.1,0.1,0.1,0.1l0.7,0.7l7.7-7.6l4.8-4.7l0,0
			l2.1-2l0.1-0.1c0-0.1,0.1-0.1,0.1-0.2c0.1-0.1,0.1-0.1,0.2-0.2l0.1-0.1c0-0.1,0.1-0.2,0.2-0.2c0.3-0.3,0.8-0.3,1.1,0l0,0l5.8,5.9
			l1.2,1.2c0.3,0.4,0.8,0.6,1.3,0.6c1,0,1.8-0.8,1.8-1.8c0-0.5-0.2-1-0.5-1.3l0,0l-7.2-7.4l0,0l0,0c-1.2-1.3-2.7-2.2-4.2-2.8
			c-1.4-0.6-2.8-0.9-4.3-0.9c-0.5,0-1,0-1.5,0.1c-0.5,0-0.9,0.1-1.4,0.2c-0.9,0-1.8-0.4-2.5-1.1l-1.6-1.6L2.5,15.9l1.5,1.5l0.9,0.9
			c0.4,0.6,0.6,1.4,0.6,2.1l0,0.2c0,0.6,0,1.3,0.1,1.9c0.2,1.8,1,3.6,2.2,5.1l0,0L7.9,27.8z"/>
	</g>
	<g>
		<path class="st0" d="M30.8,37.8l-2.6,2.6l3.1,3.1l0.1,0.1l0.1,0.1c0.3,0.3,0.8,0.5,1.2,0.5c0.5,0,1-0.2,1.3-0.5
			c0.4-0.4,0.5-0.8,0.5-1.3c0-0.5-0.2-0.9-0.5-1.2l-0.1-0.1l0,0l0,0l0,0L30.8,37.8z"/>
	</g>
	<g>
		<polygon class="st0" points="33.9,40.9 33.9,40.9 33.9,40.9 		"/>
	</g>
	<g>
		<path class="st0" d="M38.8,37.8l-3.9-4l-2.6,2.6l3.9,4l0,0c0.7,0.7,1.9,0.7,2.6,0C39.5,39.7,39.5,38.6,38.8,37.8L38.8,37.8z"/>
	</g>
	<g>
		<path class="st1" d="M45.4,17.2l1.5-1.5L36.6,5.4L35,7c-0.7,0.7-1.6,1-2.5,1c-0.5-0.1-0.9-0.2-1.4-0.2c-0.5-0.1-1-0.1-1.5-0.1
			c-1.9,0-3.7,0.5-5.4,1.3c1.5,0.6,3,1.5,4.2,2.8l0,0l0,0l7.2,7.4l0,0c0.3,0.3,0.5,0.8,0.5,1.3c0,1-0.8,1.8-1.8,1.8
			c-0.5,0-1-0.2-1.3-0.6l-1.2-1.2l-5.8-5.9l0,0c-0.3-0.3-0.8-0.3-1.1,0c-0.1,0.1-0.1,0.2-0.2,0.2l-0.1,0.1c-0.1,0.1-0.1,0.1-0.2,0.2
			c0,0.1-0.1,0.1-0.1,0.2l-0.1,0.1l-2.1,2l0,0L17.5,22l-7.7,7.6l-2.6,2.6l0,0l0,0c-0.3,0.4-0.5,0.8-0.5,1.3c0,0.5,0.2,0.9,0.5,1.3
			c0.4,0.4,0.8,0.5,1.3,0.5c0.4,0,0.9-0.1,1.2-0.5l0.1-0.1l0.1-0.1l2.6-2.5l6.5-6.4c0.3,0.6,0.7,1.2,1.1,1.7l-6.1,6l-3.5,3.4
			l-0.1,0.1c-0.7,0.7-0.7,1.9,0,2.6c0.7,0.7,1.9,0.7,2.6,0l0,0l3.5-3.4l2.6-2.6l0.8-0.8l2.8-2.8c0.6,0.4,1.2,0.8,1.8,1.1l-2.5,2.5
			l-1.4,1.4l-2.6,2.6l-2.6,2.6l0,0L15,40.3c-0.3,0.3-0.5,0.8-0.5,1.2c0,0.5,0.2,1,0.5,1.3c0.4,0.4,0.8,0.5,1.3,0.5
			c0.4,0,0.8-0.2,1.2-0.5l0.1-0.1l0.1-0.1l2.6-2.6l2.6-2.6l1.4-1.4l2.6-2.6l1.4-1.3c0.1,0,0.1,0,0.2,0c0.9,0.1,1.8,0.1,2.7,0
			l-1.4,1.3l-1.4,1.4l-2.6,2.6l-1.4,1.4l-2.6,2.6L21,42.4l0,0l0,0c-0.7,0.7-0.7,1.9,0,2.6c0.7,0.7,1.7,0.7,2.5,0.1l0.1-0.1l0.1-0.1
			l0.6-0.6l2.6-2.6l1.4-1.4l2.6-2.6l1.4-1.4l2.6-2.6l0.6-0.6l0,0l0.9-0.8l2.6-2.6l1.2-1.2c0.2-0.2,0.4-0.3,0.6-0.5
			c0.2-0.2,0.4-0.4,0.5-0.6l0.2-0.2l0,0c1.2-1.5,2-3.2,2.2-5c0.1-0.6,0.1-1.3,0.1-1.9l0-0.2c0-0.7,0.2-1.5,0.7-2.1L45.4,17.2z"/>
	</g>
</g>
</svg>
