<?xml version="1.0" encoding="utf-8"?>
<!-- Generator: Adobe Illustrator 27.9.6, SVG Export Plug-In . SVG Version: 9.03 Build 54986)  -->
<svg version="1.1" id="Layer_1" xmlns="http://www.w3.org/2000/svg" xmlns:xlink="http://www.w3.org/1999/xlink" x="0px" y="0px"
	 viewBox="0 0 51.8 49.9" style="enable-background:new 0 0 51.8 49.9;" xml:space="preserve">
<style type="text/css">
	.st0{fill:#DE8603;}
</style>
<g>
	<path class="st0" d="M14.6,43.6l-8.3,1.2c-0.6,0.1-1.2-0.1-1.6-0.5s-0.6-1-0.5-1.6l1.2-8.3C3.8,31.4,3,28,3,24.5
		c0-2.9,0.6-5.7,1.7-8.4c1.1-2.6,2.6-4.9,4.6-6.8c2-2,4.3-3.5,6.8-4.6C18.8,3.6,21.6,3,24.5,3s5.7,0.6,8.4,1.7
		c2.6,1.1,4.9,2.6,6.8,4.6c2,2,3.5,4.3,4.6,6.8c1.1,2.6,1.7,5.5,1.7,8.4s-0.6,5.7-1.7,8.4c-1.1,2.6-2.6,4.9-4.6,6.8
		c-2,2-4.3,3.5-6.8,4.6c-2.6,1.1-5.5,1.7-8.4,1.7C21.1,46,17.7,45.2,14.6,43.6z M16.9,6.6c-2.3,1-4.4,2.4-6.2,4.2S7.5,14.7,6.5,17
		c-1,2.4-1.5,4.9-1.5,7.6c0,3.2,0.8,6.4,2.3,9.2L7.5,34l-1.2,8.7l8.7-1.2l0.3,0.2c2.8,1.5,6,2.3,9.2,2.3c2.6,0,5.2-0.5,7.6-1.5
		c2.3-1,4.4-2.4,6.2-4.2s3.2-3.9,4.2-6.2c1-2.4,1.5-4.9,1.5-7.6s-0.5-5.2-1.5-7.6c-1-2.3-2.4-4.4-4.2-6.2s-3.9-3.2-6.2-4.2
		c-2.4-1-4.9-1.5-7.6-1.5S19.3,5.6,16.9,6.6z M6.2,42.9L6.2,42.9L6.2,42.9z"/>
	<g>
		<path class="st0" d="M24.2,30.5c-0.4,0-0.7,0.1-1,0.4s-0.4,0.6-0.4,1s0.1,0.7,0.4,1c0.3,0.3,0.6,0.4,1,0.4s0.7-0.1,1-0.4
			c0.3-0.3,0.4-0.6,0.4-1c0-0.4-0.1-0.7-0.4-1S24.5,30.5,24.2,30.5z"/>
		<path class="st0" d="M29,17.9c-0.4-0.7-1-1.2-1.8-1.5c-0.8-0.4-1.6-0.6-2.7-0.6s-2.1,0.2-2.8,0.6c-0.8,0.4-1.3,1-1.7,1.6
			c-0.4,0.7-0.6,1.4-0.7,2.2v0.2h2v-0.1c0.1-0.5,0.2-1,0.5-1.4s0.6-0.7,1-0.9c0.4-0.2,1-0.3,1.6-0.3s1.1,0.1,1.5,0.3
			c0.4,0.2,0.8,0.5,1,0.9s0.4,0.8,0.4,1.3l0,0c0,0.4-0.1,0.8-0.2,1.1c-0.1,0.3-0.3,0.6-0.6,0.9c-0.3,0.3-0.7,0.6-1.1,0.8
			c-0.5,0.3-1,0.7-1.3,1c-0.4,0.4-0.6,0.8-0.8,1.2c-0.2,0.4-0.3,0.9-0.3,1.4v1.1h2.1V27c0-0.4,0.1-0.8,0.2-1.1
			c0.1-0.3,0.3-0.6,0.6-0.9c0.3-0.3,0.7-0.6,1.2-0.8c0.8-0.5,1.4-1,1.8-1.7c0.5-0.7,0.7-1.5,0.7-2.4l0,0
			C29.6,19.3,29.4,18.5,29,17.9z"/>
	</g>
</g>
</svg>
