<?xml version="1.0" encoding="utf-8"?>
<!-- Generator: Adobe Illustrator 27.9.6, SVG Export Plug-In . SVG Version: 9.03 Build 54986)  -->
<svg version="1.1" id="Layer_1" xmlns="http://www.w3.org/2000/svg" xmlns:xlink="http://www.w3.org/1999/xlink" x="0px" y="0px"
	 viewBox="0 0 11.3 12.3" style="enable-background:new 0 0 11.3 12.3;" xml:space="preserve">
<style type="text/css">
	.st0{fill:#FFFFFF;}
</style>
<g>
	<path class="st0" d="M5.8,10.5c1.1,0,2.3,0,3.4,0c0.2,0,0.3-0.1,0.3-0.3c0-0.2,0-0.4,0-0.5c-0.4-2-2.1-3.4-4.2-3.1
		C3.5,6.7,2.1,8.3,2,10.2c0,0.3,0.1,0.4,0.4,0.4C3.5,10.5,4.6,10.5,5.8,10.5z M7.4,4.6C7.4,3.7,6.7,3,5.8,3C4.9,3,4.2,3.7,4.2,4.6
		c0,0.9,0.7,1.6,1.6,1.6C6.7,6.2,7.4,5.5,7.4,4.6z"/>
	<path class="st0" d="M5.8,10.5c-1.1,0-2.3,0-3.4,0c-0.3,0-0.4-0.1-0.4-0.4c0-1.8,1.5-3.4,3.3-3.6c2-0.2,3.8,1.1,4.2,3.1
		c0,0.2,0,0.4,0,0.5c0,0.2-0.1,0.3-0.3,0.3C8.1,10.5,6.9,10.5,5.8,10.5z"/>
	<path class="st0" d="M7.4,4.6c0,0.9-0.7,1.6-1.6,1.6c-0.9,0-1.6-0.7-1.6-1.6C4.2,3.7,4.9,3,5.8,3C6.7,3,7.4,3.7,7.4,4.6z"/>
</g>
</svg>
