<?xml version="1.0" encoding="utf-8"?>
<!-- Generator: Adobe Illustrator 27.9.6, SVG Export Plug-In . SVG Version: 9.03 Build 54986)  -->
<svg version="1.1" id="Layer_1" xmlns="http://www.w3.org/2000/svg" xmlns:xlink="http://www.w3.org/1999/xlink" x="0px" y="0px"
	 viewBox="0 0 74.1 76.2" style="enable-background:new 0 0 74.1 76.2;" xml:space="preserve">
<style type="text/css">
	.st0{fill:#EFD7C5;}
	.st1{fill:#FFFFFF;}
</style>
<g>
	<circle class="st0" cx="35.8" cy="37.9" r="32.1"/>
	<g>
		<path class="st1" d="M52.9,58.3c1,0,1.8-0.3,2.6-0.8c0.8-0.5,1.3-1.6,1.5-3.3c0-0.2,0-0.5,0-0.7c0-1.4-0.5-2.9-1.4-4.3
			c-0.9-1.5-2.3-2.4-4.1-2.7c-0.5-0.1-1.1-0.1-1.6-0.1c-1.3,0-2.7,0.3-4.3,0.9c-1.6,0.6-3.7,1.6-6.3,3.1c-2.1,1.2-4.4,2.4-6.7,3.4
			c-2.3,1.1-4.7,1.9-7.1,2.4c-1.3,0.3-2.6,0.4-3.8,0.4c-1.2,0-2.3-0.1-3.5-0.4c-3.5-0.8-6.2-2.4-8-4.7c-1.8-2.3-2.8-4.9-3-7.8
			c0-0.4-0.1-0.8-0.1-1.1c0-2.5,0.6-4.9,1.9-7.4s3.2-4.4,6-5.9c0.8-0.4,1.7-0.7,2.6-1c1.4-0.4,2.8-0.5,4.1-0.5
			c0.9,0,1.8,0.1,2.7,0.3l2.7-8.5h1.3l7.9,23.6c0.4,0.8,1.1,1.3,2,1.5h-6c0.7-0.3,1.1-0.6,1.1-0.9c0-0.1,0-0.1,0-0.2
			c-1.1-3.3-2.2-6.5-3.3-9.8c-0.4-1.3-0.8-2.5-1.3-3.8c-1.2-0.7-2.5-1.2-4.1-1.5l-4.5,14c-0.1,0.4-0.2,0.7-0.2,1
			c0,0.6,0.2,0.9,0.7,1.1h-2.8c0.9-0.4,1.5-1.1,1.9-2.1L24,28.4c-0.8-0.2-1.7-0.3-2.5-0.3c-1.3,0-2.6,0.2-4,0.5
			c-0.9,0.3-1.7,0.6-2.5,1c-2.7,1.4-4.6,3.3-5.8,5.6c-1,1.9-1.5,3.8-1.5,5.8c0,0.5,0.1,1.4,0.3,2.9c0.2,1.5,1.2,3.2,3,5.2
			c1.8,2,4.4,3.4,7.8,4.2c1.1,0.2,2.2,0.4,3.4,0.4c0.9,0,2.2-0.1,3.8-0.3c1.6-0.2,3.8-1.1,6.7-2.5c2.8-1.5,5.4-2.7,7.6-3.7
			c2.2-1,4.5-1.7,6.7-2.1c0.9-0.2,1.7-0.2,2.5-0.2c1.2,0,2.6,0.3,4.1,0.8c1.5,0.5,2.7,1.8,3.6,3.8c0.6,1.3,0.8,2.5,0.8,3.7
			c0,0.8-0.2,1.8-0.6,3.2C56.8,57.5,55.3,58.2,52.9,58.3z M26.1,23l-1.6,5.1c1.4,0.3,2.7,0.8,3.8,1.4L26.1,23z"/>
		<path class="st1" d="M39.3,43.2V21.6c-0.2-1.1-0.7-1.8-1.4-2.1c1.5,0,3,0,4.5,0c2.9,0,5.8,0,8.6,0V22c-0.1-0.5-0.2-0.9-0.4-1.3
			c-0.2-0.4-0.5-0.7-1-0.9h-7.3v12.6h5.3c0.4-0.4,0.6-0.9,0.7-1.7V35c-0.2-1.1-0.4-1.9-0.7-2.1h-5.3v10.3c0.4,0,0.8-0.1,1.2-0.1
			c1.5,0,3.2,0.3,4.9,0.9c1.7,0.6,3.6,1.4,5.6,2.5l0.2,0.1c2.3,1.2,4.8,2.2,7.3,3.1c1.8,0.6,3.7,0.9,5.7,0.9c0.8,0,2.2-0.1,4.1-0.3
			c1.9-0.2,4.6-1.5,8.1-3.9h0.1c-2.6,2.9-5.4,4.7-8.4,5.5c-1.8,0.5-3.5,0.7-5.3,0.7c-1.2,0-2.8-0.2-4.9-0.6
			c-2.1-0.4-4.3-1.2-6.7-2.4c-1.1-0.5-2.1-1.1-3.1-1.6c-1.5-0.8-2.9-1.5-4.3-2.1c-1.4-0.6-2.9-1-4.4-1.2c-0.3,0-0.5,0-0.8,0
			c-2.2,0-4.2,0.5-6.2,1.6C36.5,45.5,37.7,44.5,39.3,43.2z"/>
	</g>
</g>
</svg>
