<?xml version="1.0" encoding="utf-8"?>
<!-- Generator: Adobe Illustrator 27.9.6, SVG Export Plug-In . SVG Version: 9.03 Build 54986)  -->
<svg version="1.1" id="Layer_1" xmlns="http://www.w3.org/2000/svg" xmlns:xlink="http://www.w3.org/1999/xlink" x="0px" y="0px"
	 viewBox="0 0 187.1 42.4" style="enable-background:new 0 0 187.1 42.4;" xml:space="preserve">
<style type="text/css">
	.st0{fill:#DE8704;}
</style>
<g>
	<path class="st0" d="M129.8,19.3c9.1,3.6,18.8,6.5,28.8,7.1c2.6,0.2,5,0.2,7.4,0c2.4-0.3,4.9-0.6,7.3-1.4c2.3-0.8,4.4-2,5.9-3.5
		s2.6-3.5,2.6-5.5c0.2-2-0.8-3.9-2-5.8c-1.2-1.7-3.2-3-5.2-4.2c-2.1-1.1-4.4-1.8-6.8-2.3s-4.9-0.6-7.3-0.6c-5,0.2-9.9,1.1-14.6,2.4
		c-1.2,0.3-2.4,0.6-3.6,0.9l-3.5,1.2c-2.4,0.8-4.5,1.7-7,2.4c-9.1,3.6-17.6,8.3-26.5,12.9c-8.8,4.5-18.3,8.6-28.5,10.8L73.3,35
		l-2,0.3l-2,0.2l-3.9,0.5c-1.2,0.2-2.6,0.2-3.8,0.2c-5.3,0-10.6-0.6-15.5-2.6c-4.9-2-8.9-5.3-10.6-9.7c-0.8-2.1-1.1-4.4-0.6-6.7
		c0.5-2.3,1.4-4.4,2.9-6.2c1.4-2,3.5-3.5,5.8-4.9c2.4-1.2,4.9-2.1,7.6-2.4C56.4,2.7,62,3.2,67.2,4.1c10.5,2,19.3,7.5,28.3,11.7
		c8.9,4.4,18,8.2,26.8,12.6s17.9,8.3,27.8,10.2c1.2,0.2,2.4,0.3,3.8,0.6l1.8,0.3l1.8,0.2l3.8,0.3l3.8-0.2c2.6,0,5-0.5,7.6-0.6
		c2.6-0.3,5-0.9,7.6-1.2l0,0c0.3,0,0.5,0.2,0.5,0.3c0,0.2-0.2,0.3-0.3,0.5c-10,2.6-20.6,3.6-31.1,2.1c-10.5-1.7-20-5.5-29.1-9.6
		c-9.1-4.2-17.7-8.8-26.7-13C84.5,14,75.5,10,66,7.6c-4.7-1.2-9.7-1.8-14.6-1.5c-2.4,0.2-4.7,0.8-7,1.7c-2.1,1.1-4.1,2.3-5.5,3.9
		s-2.3,3.6-2.7,5.6c-0.3,2-0.2,4.1,0.6,6.1c1.5,3.9,5.3,7.1,9.7,8.8c4.5,1.7,9.6,2.3,14.6,2c1.2-0.2,2.6-0.2,3.8-0.3l3.8-0.5
		l1.8-0.3l1.8-0.5l3.6-0.8c9.7-2.4,18.7-6.7,27.1-11.4s17.4-8.9,26.8-12.7c2.4-0.9,4.5-1.8,7.4-2.9l3.7-1.2c2.5-0.8,3.5-0.9,5.9-1.7
		c5-1.2,8-1.6,13.3-1.3c2.7,0.2,5.3,0.5,7.9,1.2c2.6,0.6,5,1.7,7.3,2.9c2.3,1.2,4.1,2.9,5.6,4.9c1.4,2,2.3,4.2,2.1,6.5
		c0,2.3-1.2,4.5-2.9,6.4c-1.8,1.8-4.1,3-6.5,3.9c-5,1.8-10.3,2.3-15.6,2.1c-10.5,0.3-15.8-3.3-25.8-7.6"/>
</g>
</svg>
