<?xml version="1.0" encoding="utf-8"?>
<!-- Generator: Adobe Illustrator 27.9.6, SVG Export Plug-In . SVG Version: 9.03 Build 54986)  -->
<svg version="1.1" id="Layer_1" xmlns="http://www.w3.org/2000/svg" xmlns:xlink="http://www.w3.org/1999/xlink" x="0px" y="0px"
	 viewBox="0 0 143.1 34.4" style="enable-background:new 0 0 143.1 34.4;" xml:space="preserve">
<style type="text/css">
	.st0{fill:#DE8704;}
</style>
<g>
	<path class="st0" d="M96.8,16.3c7.1,2.8,14.6,5,22.3,5.5c2,0.2,3.9,0.2,5.7,0c1.9-0.2,3.8-0.5,5.7-1.1c1.8-0.6,3.4-1.6,4.6-2.7
		s2-2.7,2-4.3c0.2-1.6-0.6-3-1.6-4.5c-0.9-1.3-2.5-2.3-4-3.3c-1.6-0.9-3.4-1.4-5.3-1.8c-1.9-0.4-3.8-0.5-5.7-0.5
		c-3.9,0.2-7.7,0.9-11.3,1.9c-0.9,0.2-1.9,0.5-2.8,0.7l-2.7,0.9c-1.9,0.6-3.5,1.3-5.4,1.9c-7.1,2.8-13.6,6.4-20.5,10
		c-6.8,3.5-14.2,6.7-22.1,8.4l-2.7,1l-1.6,0.2l-1.6,0.2l-3,0.4c-0.9,0.2-2,0.2-2.9,0.2c-4.1,0-8.2-0.5-12-2
		c-3.8-1.6-6.9-4.1-8.2-7.5c-0.6-1.6-0.9-3.4-0.5-5.2c0.4-1.8,1.1-3.4,2.2-4.8c1.1-1.6,2.7-2.7,4.5-3.8c1.9-0.9,3.8-1.6,5.9-1.9
		c4-0.8,8.4-0.4,12.4,0.3c8.1,1.6,15,5.8,21.9,9.1c6.9,3.4,14,6.4,20.8,9.8c6.8,3.4,13.9,6.4,21.6,7.9c0.9,0.2,1.9,0.2,2.9,0.5
		l1.4,0.2l1.4,0.2l2.9,0.2l2.9-0.2c2,0,3.9-0.4,5.9-0.5c2-0.2,3.9-0.7,5.9-0.9l0,0c0.2,0,0.4,0.2,0.4,0.2c0,0.2-0.2,0.2-0.2,0.4
		c-7.8,2-16,2.8-24.1,1.6c-8.1-1.3-15.5-4.3-22.6-7.4c-7.1-3.3-13.7-6.8-20.7-10.1c-7.1-3.3-14-6.4-21.4-8.3
		C43.7,6.3,39.8,5.8,36,6.1c-1.9,0.2-3.6,0.6-5.4,1.3c-1.6,0.9-3.2,1.8-4.3,3c-1.1,1.2-1.8,2.8-2.1,4.3c-0.2,1.6-0.2,3.2,0.5,4.7
		c1.2,3,4.1,5.5,7.5,6.8c3.5,1.3,7.4,1.8,11.3,1.6c0.9-0.2,2-0.2,2.9-0.2l2.9-0.4l1.4-0.2l1.4-0.4L55,26c7.5-1.9,14.5-5.2,21-8.8
		c6.5-3.6,13.5-6.9,20.8-9.8c1.9-0.7,3.5-1.4,5.7-2.2l2.9-0.9c1.9-0.6,2.7-0.7,4.6-1.3c3.9-0.9,6.2-1.2,10.3-1
		c2.1,0.2,4.1,0.4,6.1,0.9c2,0.5,3.9,1.3,5.7,2.2s3.2,2.2,4.3,3.8c1.1,1.6,1.8,3.3,1.6,5c0,1.8-0.9,3.5-2.2,5c-1.4,1.4-3.2,2.3-5,3
		c-3.9,1.4-8,1.8-12.1,1.6c-8.1,0.2-12.2-2.6-20-5.9"/>
</g>
</svg>
