<?xml version="1.0" encoding="utf-8"?>
<!-- Generator: Adobe Illustrator 27.9.6, SVG Export Plug-In . SVG Version: 9.03 Build 54986)  -->
<svg version="1.1" xmlns="http://www.w3.org/2000/svg" xmlns:xlink="http://www.w3.org/1999/xlink" x="0px" y="0px"
	 viewBox="0 0 279.9 136.9" style="enable-background:new 0 0 279.9 136.9;" xml:space="preserve">
<style type="text/css">
	.st0{fill:#FFFFFF;}
</style>
<g id="BG">
</g>
<g id="graphics">
	<g>
		<g>
			<path class="st0" d="M33,100.9c-0.7-0.7-1.7-1-2.9-1c-0.9,0-1.7,0.2-2.4,0.6c-0.7,0.4-1.2,0.9-1.7,1.5c-0.4,0.6-0.8,1.3-1,2.1
				c-0.2,0.8-0.3,1.6-0.3,2.4c0,0.8,0.1,1.6,0.3,2.4c0.2,0.8,0.6,1.5,1,2.1c0.4,0.6,1,1.1,1.7,1.5c0.7,0.4,1.5,0.6,2.4,0.6
				c0.6,0,1.1-0.1,1.6-0.3c0.5-0.2,1-0.5,1.4-0.9c0.4-0.4,0.7-0.9,1-1.4c0.3-0.5,0.4-1.1,0.5-1.8h1.9c-0.3,1.9-0.9,3.3-2.1,4.4
				c-1.1,1-2.6,1.6-4.3,1.6c-1.2,0-2.2-0.2-3.1-0.6c-0.9-0.4-1.7-1-2.3-1.7c-0.6-0.7-1.1-1.6-1.4-2.6c-0.3-1-0.5-2-0.5-3.2
				c0-1.1,0.2-2.2,0.5-3.2c0.3-1,0.8-1.8,1.4-2.6c0.6-0.7,1.4-1.3,2.3-1.8c0.9-0.4,1.9-0.7,3.1-0.7c1.7,0,3.1,0.4,4.2,1.3
				c1.1,0.9,1.8,2.2,2,4h-1.9C34.1,102.4,33.7,101.5,33,100.9z"/>
			<path class="st0" d="M40.8,98.8v3.6h0.1c0.5-1.3,1.2-2.2,2.2-2.9c1-0.7,2.2-1,3.6-0.9v1.9c-0.9,0-1.6,0.1-2.3,0.3
				c-0.7,0.3-1.3,0.7-1.8,1.2c-0.5,0.5-0.9,1.1-1.2,1.8c-0.3,0.7-0.4,1.4-0.4,2.3v8.2H39V98.8H40.8z"/>
			<path class="st0" d="M49.3,109.1c0.2,0.7,0.5,1.4,0.9,2c0.4,0.6,0.9,1.1,1.6,1.4c0.6,0.4,1.4,0.6,2.3,0.6c1.4,0,2.5-0.4,3.2-1.1
				c0.8-0.7,1.3-1.7,1.6-2.9h1.9c-0.4,1.8-1.1,3.1-2.2,4.1c-1.1,1-2.6,1.4-4.5,1.4c-1.2,0-2.3-0.2-3.2-0.6c-0.9-0.4-1.6-1-2.2-1.8
				c-0.6-0.7-1-1.6-1.2-2.6c-0.3-1-0.4-2-0.4-3.1c0-1,0.1-2,0.4-3c0.3-1,0.7-1.8,1.2-2.6c0.6-0.8,1.3-1.4,2.2-1.9
				c0.9-0.5,1.9-0.7,3.2-0.7c1.2,0,2.3,0.2,3.2,0.7c0.9,0.5,1.6,1.2,2.1,2c0.5,0.8,0.9,1.7,1.2,2.8c0.2,1,0.3,2.1,0.3,3.2H49
				C49,107.7,49.1,108.4,49.3,109.1z M58.6,103.3c-0.2-0.7-0.6-1.2-1-1.7c-0.4-0.5-0.9-0.9-1.5-1.2c-0.6-0.3-1.3-0.5-2-0.5
				c-0.8,0-1.5,0.2-2.1,0.5c-0.6,0.3-1.1,0.7-1.5,1.2c-0.4,0.5-0.8,1.1-1,1.8c-0.2,0.7-0.4,1.4-0.5,2h10
				C59,104.7,58.9,104,58.6,103.3z"/>
			<path class="st0" d="M63.8,101.1c0.3-0.7,0.8-1.2,1.3-1.6c0.5-0.4,1.2-0.7,1.9-0.9c0.7-0.2,1.6-0.3,2.5-0.3c0.7,0,1.4,0.1,2,0.2
				c0.7,0.1,1.3,0.4,1.8,0.7c0.5,0.4,1,0.9,1.3,1.5c0.3,0.6,0.5,1.5,0.5,2.5v8.2c0,0.8,0.4,1.1,1.1,1.1c0.2,0,0.4,0,0.6-0.1v1.6
				c-0.2,0-0.4,0.1-0.6,0.1c-0.2,0-0.4,0-0.6,0c-0.5,0-0.9-0.1-1.2-0.2c-0.3-0.1-0.5-0.3-0.7-0.6c-0.2-0.2-0.3-0.5-0.3-0.9
				c0-0.3-0.1-0.7-0.1-1.1h-0.1c-0.3,0.5-0.7,0.9-1,1.3c-0.3,0.4-0.7,0.7-1.2,1c-0.4,0.3-0.9,0.5-1.5,0.6c-0.5,0.1-1.2,0.2-2,0.2
				c-0.7,0-1.4-0.1-2-0.3c-0.6-0.2-1.2-0.4-1.6-0.8c-0.5-0.4-0.8-0.8-1.1-1.4c-0.3-0.6-0.4-1.2-0.4-2c0-1.1,0.2-1.9,0.7-2.5
				c0.5-0.6,1.1-1.1,1.9-1.4c0.8-0.3,1.7-0.5,2.7-0.7c1-0.1,2-0.3,3-0.4c0.4,0,0.7-0.1,1-0.1c0.3-0.1,0.5-0.2,0.7-0.3
				c0.2-0.1,0.4-0.4,0.5-0.6c0.1-0.3,0.2-0.6,0.2-1c0-0.6-0.1-1.2-0.3-1.6c-0.2-0.4-0.5-0.7-0.9-1c-0.4-0.2-0.8-0.4-1.3-0.5
				c-0.5-0.1-1-0.1-1.6-0.1c-1.2,0-2.2,0.3-2.9,0.9c-0.8,0.6-1.2,1.5-1.2,2.7h-1.9C63.3,102.6,63.5,101.8,63.8,101.1z M73.2,105.7
				c-0.1,0.2-0.3,0.4-0.7,0.5c-0.3,0.1-0.6,0.2-0.9,0.2c-0.8,0.1-1.6,0.3-2.5,0.4c-0.8,0.1-1.6,0.3-2.3,0.5
				c-0.7,0.2-1.3,0.5-1.7,0.9c-0.4,0.4-0.7,1-0.7,1.7c0,0.5,0.1,0.9,0.3,1.3c0.2,0.4,0.4,0.7,0.8,1c0.3,0.3,0.7,0.5,1.1,0.6
				c0.4,0.1,0.8,0.2,1.3,0.2c0.7,0,1.4-0.1,2.1-0.3c0.7-0.2,1.2-0.5,1.7-1c0.5-0.4,0.9-0.9,1.2-1.5c0.3-0.6,0.4-1.3,0.4-2
				L73.2,105.7L73.2,105.7z"/>
			<path class="st0" d="M85.1,98.8v1.6h-3.1v10.4c0,0.6,0.1,1.1,0.3,1.4c0.2,0.3,0.6,0.5,1.3,0.6c0.5,0,1.1,0,1.6-0.1v1.6
				c-0.3,0-0.6,0-0.8,0c-0.3,0-0.6,0-0.8,0c-1.3,0-2.1-0.2-2.6-0.7c-0.5-0.5-0.7-1.4-0.7-2.7v-10.6h-2.7v-1.6H80v-4.6h1.9v4.6H85.1z
				"/>
			<path class="st0" d="M89.7,92.8v3h-1.9v-3H89.7z M89.7,98.8v15.4h-1.9V98.8H89.7z"/>
			<path class="st0" d="M93.7,98.8l4.8,13.5h0.1l4.8-13.5h1.9l-5.8,15.4h-2l-5.9-15.4H93.7z"/>
			<path class="st0" d="M108.5,109.1c0.2,0.7,0.5,1.4,0.9,2c0.4,0.6,0.9,1.1,1.6,1.4c0.6,0.4,1.4,0.6,2.3,0.6c1.4,0,2.5-0.4,3.2-1.1
				c0.8-0.7,1.3-1.7,1.6-2.9h1.9c-0.4,1.8-1.1,3.1-2.2,4.1c-1.1,1-2.6,1.4-4.5,1.4c-1.2,0-2.3-0.2-3.2-0.6c-0.9-0.4-1.6-1-2.2-1.8
				c-0.6-0.7-1-1.6-1.2-2.6c-0.3-1-0.4-2-0.4-3.1c0-1,0.1-2,0.4-3c0.3-1,0.7-1.8,1.2-2.6c0.6-0.8,1.3-1.4,2.2-1.9
				c0.9-0.5,1.9-0.7,3.2-0.7c1.2,0,2.3,0.2,3.2,0.7c0.9,0.5,1.6,1.2,2.1,2c0.5,0.8,0.9,1.7,1.2,2.8c0.2,1,0.3,2.1,0.3,3.2h-11.9
				C108.3,107.7,108.4,108.4,108.5,109.1z M117.9,103.3c-0.2-0.7-0.6-1.2-1-1.7c-0.4-0.5-0.9-0.9-1.5-1.2c-0.6-0.3-1.3-0.5-2-0.5
				c-0.8,0-1.5,0.2-2.1,0.5c-0.6,0.3-1.1,0.7-1.5,1.2c-0.4,0.5-0.8,1.1-1,1.8c-0.2,0.7-0.4,1.4-0.5,2h10
				C118.2,104.7,118.1,104,117.9,103.3z"/>
			<path class="st0" d="M132.9,92.8v8.8h0.1c0.2-0.6,0.5-1,0.9-1.5c0.4-0.4,0.8-0.8,1.3-1.1c0.5-0.3,1-0.5,1.6-0.6
				c0.6-0.1,1.1-0.2,1.7-0.2c1.2,0,2.2,0.2,3.1,0.7c0.9,0.4,1.6,1,2.2,1.8c0.6,0.7,1,1.6,1.3,2.6c0.3,1,0.4,2,0.4,3.1
				c0,1.1-0.1,2.1-0.4,3.1c-0.3,1-0.7,1.9-1.3,2.6c-0.6,0.7-1.3,1.3-2.2,1.8c-0.9,0.4-1.9,0.6-3.1,0.6c-1.3,0-2.4-0.3-3.4-0.9
				s-1.7-1.4-2.1-2.5h-0.1v2.9H131V92.8H132.9z M143,104.1c-0.2-0.8-0.5-1.5-0.9-2.1c-0.4-0.6-0.9-1.1-1.6-1.5
				c-0.6-0.4-1.4-0.6-2.3-0.6c-1,0-1.8,0.2-2.5,0.6c-0.7,0.4-1.2,0.9-1.7,1.5c-0.4,0.6-0.7,1.3-0.9,2.1c-0.2,0.8-0.3,1.6-0.3,2.4
				c0,0.8,0.1,1.6,0.3,2.4c0.2,0.8,0.5,1.5,0.9,2.1c0.4,0.6,1,1.1,1.7,1.5c0.7,0.4,1.5,0.6,2.5,0.6c0.9,0,1.7-0.2,2.3-0.6
				c0.6-0.4,1.2-0.9,1.6-1.5c0.4-0.6,0.7-1.3,0.9-2.1c0.2-0.8,0.3-1.6,0.3-2.4C143.3,105.7,143.2,104.9,143,104.1z"/>
			<path class="st0" d="M149.5,109.1c0.2,0.7,0.5,1.4,0.9,2c0.4,0.6,0.9,1.1,1.6,1.4c0.6,0.4,1.4,0.6,2.3,0.6c1.4,0,2.5-0.4,3.2-1.1
				c0.8-0.7,1.3-1.7,1.6-2.9h1.9c-0.4,1.8-1.1,3.1-2.2,4.1c-1.1,1-2.6,1.4-4.5,1.4c-1.2,0-2.3-0.2-3.2-0.6c-0.9-0.4-1.6-1-2.2-1.8
				c-0.6-0.7-1-1.6-1.2-2.6c-0.3-1-0.4-2-0.4-3.1c0-1,0.1-2,0.4-3c0.3-1,0.7-1.8,1.2-2.6c0.6-0.8,1.3-1.4,2.2-1.9
				c0.9-0.5,1.9-0.7,3.2-0.7c1.2,0,2.3,0.2,3.2,0.7c0.9,0.5,1.6,1.2,2.1,2c0.5,0.8,0.9,1.7,1.2,2.8c0.2,1,0.3,2.1,0.3,3.2h-11.9
				C149.2,107.7,149.3,108.4,149.5,109.1z M158.8,103.3c-0.2-0.7-0.6-1.2-1-1.7c-0.4-0.5-0.9-0.9-1.5-1.2c-0.6-0.3-1.3-0.5-2-0.5
				c-0.8,0-1.5,0.2-2.1,0.5c-0.6,0.3-1.1,0.7-1.5,1.2c-0.4,0.5-0.8,1.1-1,1.8c-0.2,0.7-0.4,1.4-0.5,2h10
				C159.2,104.7,159.1,104,158.8,103.3z"/>
			<path class="st0" d="M164,101.1c0.3-0.7,0.8-1.2,1.3-1.6c0.5-0.4,1.2-0.7,1.9-0.9c0.7-0.2,1.6-0.3,2.5-0.3c0.7,0,1.4,0.1,2,0.2
				c0.7,0.1,1.3,0.4,1.8,0.7c0.5,0.4,1,0.9,1.3,1.5c0.3,0.6,0.5,1.5,0.5,2.5v8.2c0,0.8,0.4,1.1,1.1,1.1c0.2,0,0.4,0,0.6-0.1v1.6
				c-0.2,0-0.4,0.1-0.6,0.1c-0.2,0-0.4,0-0.6,0c-0.5,0-0.9-0.1-1.2-0.2c-0.3-0.1-0.5-0.3-0.7-0.6c-0.2-0.2-0.3-0.5-0.3-0.9
				c0-0.3-0.1-0.7-0.1-1.1h-0.1c-0.3,0.5-0.7,0.9-1,1.3c-0.3,0.4-0.7,0.7-1.2,1c-0.4,0.3-0.9,0.5-1.5,0.6c-0.5,0.1-1.2,0.2-2,0.2
				c-0.7,0-1.4-0.1-2-0.3c-0.6-0.2-1.2-0.4-1.6-0.8c-0.5-0.4-0.8-0.8-1.1-1.4c-0.3-0.6-0.4-1.2-0.4-2c0-1.1,0.2-1.9,0.7-2.5
				c0.5-0.6,1.1-1.1,1.9-1.4c0.8-0.3,1.7-0.5,2.7-0.7c1-0.1,2-0.3,3-0.4c0.4,0,0.7-0.1,1-0.1c0.3-0.1,0.5-0.2,0.7-0.3
				c0.2-0.1,0.4-0.4,0.5-0.6c0.1-0.3,0.2-0.6,0.2-1c0-0.6-0.1-1.2-0.3-1.6c-0.2-0.4-0.5-0.7-0.9-1c-0.4-0.2-0.8-0.4-1.3-0.5
				c-0.5-0.1-1-0.1-1.6-0.1c-1.2,0-2.2,0.3-2.9,0.9c-0.8,0.6-1.2,1.5-1.2,2.7h-1.9C163.5,102.6,163.7,101.8,164,101.1z M173.5,105.7
				c-0.1,0.2-0.3,0.4-0.7,0.5c-0.3,0.1-0.6,0.2-0.9,0.2c-0.8,0.1-1.6,0.3-2.5,0.4c-0.8,0.1-1.6,0.3-2.3,0.5
				c-0.7,0.2-1.3,0.5-1.7,0.9c-0.4,0.4-0.7,1-0.7,1.7c0,0.5,0.1,0.9,0.3,1.3c0.2,0.4,0.4,0.7,0.8,1c0.3,0.3,0.7,0.5,1.1,0.6
				c0.4,0.1,0.8,0.2,1.3,0.2c0.7,0,1.4-0.1,2.1-0.3c0.7-0.2,1.2-0.5,1.7-1c0.5-0.4,0.9-0.9,1.2-1.5c0.3-0.6,0.4-1.3,0.4-2
				L173.5,105.7L173.5,105.7z"/>
			<path class="st0" d="M189.9,114.2v-2.8h-0.1c-0.5,1-1.2,1.8-2.2,2.4c-0.9,0.5-2,0.8-3.2,0.8c-1,0-1.8-0.1-2.5-0.4
				c-0.7-0.3-1.2-0.7-1.7-1.2c-0.4-0.5-0.7-1.1-0.9-1.8c-0.2-0.7-0.3-1.5-0.3-2.5v-10h1.9v10c0,1.4,0.4,2.5,1,3.2
				c0.6,0.7,1.7,1.1,3.2,1.1c0.8,0,1.5-0.2,2.1-0.5c0.6-0.3,1.1-0.8,1.4-1.4c0.4-0.6,0.7-1.2,0.8-2c0.2-0.7,0.3-1.5,0.3-2.3v-8.1
				h1.9v15.4H189.9z"/>
			<path class="st0" d="M201.3,98.8v1.6h-3.1v10.4c0,0.6,0.1,1.1,0.3,1.4c0.2,0.3,0.6,0.5,1.3,0.6c0.5,0,1.1,0,1.6-0.1v1.6
				c-0.3,0-0.6,0-0.8,0c-0.3,0-0.6,0-0.8,0c-1.3,0-2.1-0.2-2.6-0.7c-0.5-0.5-0.7-1.4-0.7-2.7v-10.6h-2.7v-1.6h2.7v-4.6h1.9v4.6
				H201.3z"/>
			<path class="st0" d="M204.3,98.8l5.1,13.2l4.8-13.2h1.9l-6.7,17.8c-0.3,0.7-0.5,1.2-0.8,1.6c-0.2,0.4-0.5,0.8-0.8,1
				c-0.3,0.2-0.6,0.4-1,0.5c-0.4,0.1-0.9,0.2-1.5,0.2c-0.4,0-0.7,0-0.9,0c-0.2,0-0.4,0-0.6-0.1v-1.6c0.2,0,0.4,0.1,0.6,0.1
				c0.2,0,0.4,0,0.6,0c0.4,0,0.8-0.1,1-0.2c0.3-0.1,0.5-0.3,0.7-0.5c0.2-0.2,0.4-0.5,0.5-0.8c0.1-0.3,0.3-0.6,0.4-1l0.7-1.7
				l-6.2-15.4H204.3z"/>
		</g>
	</g>
	<g>
		<g>
			<path class="st0" d="M32.1,41.4v10.9c1-1.7,2.5-3.1,4.4-4.2c1.6-0.9,3.6-1.4,6-1.4c4.3,0,7.8,1.8,10.5,5.3
				c2.7,3.5,4.1,8.1,4.1,13.8c0,5.6-1.4,10.2-4.1,13.8c-1.4,1.7-3.2,3-5.5,3.8c-2.3,0.8-4.6,1.2-6.9,1.2c-4.4,0-8.4-1.1-12.1-3.4
				c-3.7-2.3-5.6-6.6-5.6-13.1V36.8h4.6c1.3,0,2.4,0.5,3.3,1.4C31.6,39,32.1,40.1,32.1,41.4z M47.6,65.4c0-3.3-0.7-5.8-2-7.6
				c-1.4-1.9-3.2-2.9-5.6-2.9c-2.5,0-4.5,0.9-5.9,2.7c-1.4,1.9-2,4.5-2,7.8c0,3.8,0.6,6.6,1.9,8.3c1.4,1.9,3.3,2.9,5.7,2.9
				c2.5,0,4.5-1,5.9-2.9C46.9,71.8,47.6,69,47.6,65.4z"/>
			<path class="st0" d="M91.7,47.5v21.3c0,6.5-1.7,10.7-5,12.7c-3.4,2-7,3-11,3c-3.9-0.2-7.5-1.3-10.7-3.3c-3.2-2-4.8-6.1-4.8-12.4
				V47.5h9.5v23.2c0,2.2,0.6,3.8,1.9,4.8c1.3,1,2.7,1.5,4.4,1.5c1.6,0,3.1-0.5,4.4-1.5c1.3-1,2-2.6,2-4.8V52.2
				c0-1.3,0.4-2.4,1.3-3.3c0.9-0.9,2-1.4,3.3-1.4H91.7z"/>
			<path class="st0" d="M110.7,83.8c-3,0.2-6.3,0.1-9.8-0.1c-3.5-0.3-5.3-2.5-5.3-6.7V36.9h4.9c1.2,0,2.2,0.5,3.1,1.4
				c0.9,0.9,1.4,2,1.4,3.3v6.1h5.6v1.9c0,1.4-0.5,2.5-1.4,3.3c-0.9,0.9-2,1.3-3.3,1.3h-1v20.2c0,1.5,0.9,2.3,2.7,2.3h2.9V83.8z"/>
			<path class="st0" d="M129,83.8c-3,0.2-6.3,0.1-9.8-0.1c-3.5-0.3-5.3-2.5-5.3-6.7V36.9h4.9c1.2,0,2.2,0.5,3.1,1.4
				c0.9,0.9,1.4,2,1.4,3.3v6.1h5.6v1.9c0,1.4-0.5,2.5-1.4,3.3c-0.9,0.9-2,1.3-3.3,1.3h-1v20.2c0,1.5,0.9,2.3,2.7,2.3h2.9V83.8z"/>
			<path class="st0" d="M156.5,72.6h6.8c-1,3.8-2.9,6.7-5.7,8.7c-2.8,2.1-6.4,3.1-10.6,3.1c-5.2,0-9.2-1.7-12.1-5
				c-2.9-3.3-4.4-8-4.4-14c0-5.8,1.4-10.4,4.2-13.6c2.9-3.4,7-5,12.1-5c5.5,0,9.7,1.6,12.7,4.9c2.9,3.4,4.4,8,4.4,14
				c0,0.4,0,0.7,0,1c0,0.3,0,0.5,0,0.5c0,0.5,0,0.8-0.1,1h-23.6c0.1,2.8,0.8,4.9,2,6.3c1.2,1.5,3,2.2,5.3,2.2c1.5,0,2.9-0.3,4-1
				c0.3-0.1,0.5-0.2,0.8-0.5c0.2-0.2,0.5-0.5,0.8-0.7c0.1-0.3,0.4-0.6,1-1.1C154.5,72.9,155.4,72.6,156.5,72.6z M140.1,62H154
				c-0.2-2.5-0.8-4.3-1.9-5.5c-1.2-1.3-2.9-1.9-5-1.9c-2,0-3.6,0.6-4.9,1.9C140.9,57.8,140.2,59.6,140.1,62z"/>
			<path class="st0" d="M166.7,83.8V66.2c0-3.5,0.5-6.5,1.6-8.9c1-2.4,2.5-4.3,4.3-5.8c1.7-1.4,3.8-2.4,6.1-3c2.3-0.6,4.7-1,7.2-1
				c0.2,0,0.4,0,0.7,0c0.3,0,0.5,0,0.7,0v9.7H184c-2.6,0-4.6,0.6-5.9,1.9c-1.3,1.3-1.9,3.3-1.9,6v18.7H166.7z"/>
			<path class="st0" d="M189.5,83.8V46.5c0-3.3,0.9-5.7,2.6-7.4c1.6-1.5,4.3-2.3,8-2.3c0.9,0,1.6,0,2.2,0.1c1,0,1.8,0,2.3,0.1v7.5
				h-2.5c-1.3,0-2.2,0.2-2.7,0.5c-0.5,0.4-0.7,1.1-0.7,2.2v2.5h5.9v2c0,1.4-0.5,2.5-1.4,3.3c-0.9,0.9-2,1.3-3.1,1.3h-1.4v27.4H189.5
				z"/>
			<path class="st0" d="M207.2,36.9h4.9c1.3,0,2.4,0.4,3.3,1.3c0.9,0.9,1.4,1.9,1.4,3.2v42.4h-9.5V36.9z"/>
			<path class="st0" d="M224.9,96.6v-7.5h2.6c1.8,0,3.2-0.4,4.3-1.3c1-0.9,1.2-2.3,0.6-4.2l-12.7-36.1h10.5l7.4,25.6l6.4-22.4
				c0.5-2.2,2-3.3,4.4-3.3h6.5L241,88.9c-1.1,3-2.5,5.1-4.1,6.4c-1.6,1.1-4.3,1.6-8,1.6c-0.3,0-0.6,0-1,0c-0.4,0-0.7,0-1,0
				c-0.3-0.1-0.6-0.2-1-0.2C225.5,96.7,225.2,96.6,224.9,96.6z"/>
		</g>
	</g>
</g>
</svg>
