<?xml version="1.0" encoding="utf-8"?>
<!-- Generator: Adobe Illustrator 27.9.6, SVG Export Plug-In . SVG Version: 9.03 Build 54986)  -->
<svg version="1.1" id="Layer_1" xmlns="http://www.w3.org/2000/svg" xmlns:xlink="http://www.w3.org/1999/xlink" x="0px" y="0px"
	 viewBox="0 0 317.3 57.9" style="enable-background:new 0 0 317.3 57.9;" xml:space="preserve">
<style type="text/css">
	.st0{fill:url(#SVGID_1_);}
	.st1{fill:#FFFFFF;}
	.st2{font-family:'Helvetica-Light';}
	.st3{font-size:8.4343px;}
	.st4{font-family:'OriyaMN';}
	.st5{font-size:31.672px;}
</style>
<g>
	
		<linearGradient id="SVGID_1_" gradientUnits="userSpaceOnUse" x1="1.0169" y1="-763.8359" x2="99.3077" y2="-763.8359" gradientTransform="matrix(1 0 0 -1 0 -724)">
		<stop  offset="0" style="stop-color:#C7992F"/>
		<stop  offset="0.1507" style="stop-color:#B57E11"/>
		<stop  offset="0.9257" style="stop-color:#B57E11"/>
		<stop  offset="0.9351" style="stop-color:#B88317"/>
		<stop  offset="1" style="stop-color:#CDA136"/>
	</linearGradient>
	<path class="st0" d="M63.8,38.6c6,2.4,12.4,4.3,19,4.7c1.7,0.1,3.3,0.1,4.9,0c1.6-0.2,3.2-0.4,4.8-0.9c1.5-0.5,2.9-1.3,3.9-2.3
		s1.7-2.3,1.7-3.6c0.1-1.3-0.5-2.6-1.3-3.8c-0.8-1.1-2.1-2-3.4-2.8c-1.4-0.7-2.9-1.2-4.5-1.5S85.7,28,84.1,28
		c-3.3,0.1-6.5,0.7-9.6,1.6c-0.8,0.2-1.6,0.4-2.4,0.6L69.8,31c-1.6,0.5-3,1.1-4.6,1.6c-6,2.4-11.6,5.5-17.5,8.5
		c-5.8,3-12.1,5.7-18.8,7.1L26.5,49l-1.3,0.2l-1.3,0.1l-2.6,0.3c-0.8,0.1-1.7,0.1-2.5,0.1c-3.5,0-7-0.4-10.2-1.7s-5.9-3.5-7-6.4
		c-0.5-1.4-0.7-2.9-0.4-4.4s0.9-2.9,1.9-4.1c0.9-1.3,2.3-2.3,3.8-3.2c1.6-0.8,3.2-1.4,5-1.6c3.5-0.6,7.2-0.3,10.6,0.3
		c6.9,1.3,11.7,5.9,17.6,8.7c5.9,2.9,12.9,4.4,18.7,7.3s11.8,5.5,18.3,6.7c0.8,0.1,1.6,0.2,2.5,0.4l1.2,0.2L82,52l2.5,0.2l2.5-0.1
		c1.7,0,3.3-0.3,5-0.4c1.7-0.2,3.3-0.6,5-0.8c0.2,0,0.3,0.1,0.3,0.2s-0.1,0.2-0.2,0.3c-6.6,1.7-13.6,2.4-20.5,1.4
		c-6.9-1.1-13.2-3.6-19.2-6.3c-6-2.8-11.7-5.8-17.6-8.6s-11.8-5.4-18.1-7c-3.1-0.8-6.4-1.2-9.6-1C10.5,30,9,30.4,7.5,31
		c-1.4,0.7-2.7,1.5-3.6,2.6S2.4,36,2.1,37.3c-0.2,1.3-0.1,2.7,0.4,4c1,2.6,3.5,4.7,6.4,5.8c3,1.1,6.3,1.5,9.6,1.3
		c0.8-0.1,1.7-0.1,2.5-0.2l2.5-0.3l1.2-0.2l1.2-0.3l2.4-0.5c6.4-1.6,12.3-4.4,17.9-7.5s11.6-5.5,17.8-8c1.6-0.6,3.3-1.5,5-2l2-0.9
		c1,0.5,2.4-0.4,3.2-0.6c3.3-0.8,6.2-1.7,9.7-1.5c1.8,0.1,3.5,0.3,5.2,0.8c1.7,0.4,3.3,1.1,4.8,1.9s2.7,1.9,3.7,3.2
		c0.9,1.3,1.5,2.8,1.4,4.3c0,1.5-0.8,3-1.9,4.2c-1.2,1.2-2.7,2-4.3,2.6c-3.3,1.2-6.8,1.5-10.3,1.4c-6.9,0.2-10.4-2.2-17-5"/>
	<path class="st1" d="M72,36c-1.1-1.6-2.9-2.1-4.3-2.2c-0.6-0.1-1.2,0-2.7,0.2c-1.4,0.2-3,0.3-4.7,1c-1.7,0.6-4,1.8-6.9,3.4
		c-2.3,1.3-4.8,2.6-7.3,3.8s-5.2,2.1-7.8,2.6c-1.4,0.3-2.8,0.5-4.2,0.5c-1.3,0-2.5-0.1-3.8-0.4c-3.9-0.9-6.8-2.6-8.8-5.2
		c-2-2.5-3.1-5.4-3.3-8.6c0-0.4-0.1-0.8-0.1-1.2c0-2.7,0.7-5.4,2-8.1c1.4-2.7,3.6-4.8,6.6-6.4c0.9-0.4,1.8-0.8,2.8-1.1
		c1.6-0.4,3.1-0.6,4.5-0.6c1,0,2,0.1,2.9,0.3l3-9.3h1.4L50,30.6c0.4,0.9,1.2,1.4,2.2,1.6h-6.5c0.8-0.3,1.2-0.6,1.2-1
		c0-0.1,0-0.1,0-0.2c-1.2-3.6-2.4-7.1-3.7-10.7c-0.5-1.4-0.9-2.8-1.4-4.2c-1.3-0.7-2.8-1.3-4.5-1.7l-4.9,15.3
		c-0.1,0.4-0.2,0.8-0.2,1.1c0,0.6,0.2,1,0.7,1.2h-3.1c1-0.4,1.7-1.2,2-2.3l4.9-15.5c-0.9-0.2-1.8-0.3-2.8-0.3
		c-1.4,0-2.8,0.2-4.3,0.6c-1,0.3-1.9,0.6-2.8,1c-2.9,1.5-5.1,3.6-6.4,6.1c-1.1,2.1-1.6,4.2-1.6,6.3c0,0.5,0.1,1.6,0.3,3.2
		c0.2,1.6,1.3,3.5,3.3,5.7s4.8,3.7,8.5,4.6c1.2,0.3,2.4,0.4,3.7,0.4c1,0,2.4-0.1,4.1-0.4c1.8-0.2,4.2-1.2,7.3-2.8s5.9-3,8.3-4.1
		c2.4-1.1,4.9-1.9,7.3-2.3c1-0.2,1.9-0.2,2.8-0.2c1.4,0,2.8,0.3,4.5,0.8c1.6,0.6,2.9,1.9,3.9,4.2 M39.1,8.4L37.3,14
		c1.6,0.4,3,0.9,4.2,1.5L39.1,8.4z"/>
	<path class="st1" d="M51.7,32.1c0.8-0.3,1.3-1.1,1.5-2.3V6.9c-0.2-1.2-0.7-2-1.5-2.3h14.4v2.7c-0.2-1.2-0.7-2-1.5-2.3h-8.1v12.7
		h5.2c0.8-0.3,1.3-1.1,1.5-2.3v5.1c-0.2-1.2-0.7-2-1.5-2.3h-5.2v13.6h8.7c0.4-0.4,0.6-1,0.8-1.9v2.3H51.7V32.1z"/>
	<text transform="matrix(1.1 0 0 1 107.9448 49.3482)" class="st1 st2 st3">Cirurgia Plástica Medicina Estética e Odontologia </text>
	<text transform="matrix(1 0 0 1 110.079 34.5225)" class="st1 st4 st5">AUTOESTIMA</text>
</g>
</svg>
