<?xml version="1.0" encoding="utf-8"?>
<!-- Generator: Adobe Illustrator 27.9.6, SVG Export Plug-In . SVG Version: 9.03 Build 54986)  -->
<svg version="1.1" xmlns="http://www.w3.org/2000/svg" xmlns:xlink="http://www.w3.org/1999/xlink" x="0px" y="0px"
	 viewBox="0 0 61 58" style="enable-background:new 0 0 61 58;" xml:space="preserve">
<style type="text/css">
	.st0{fill:none;}
	.st1{fill:#82BFAB;}
	.st2{fill:#AAD4C8;}
	.st3{fill:#616E7D;}
</style>
<g id="Bg">
</g>
<g id="Object">
	<g>
		<path class="st0" d="M14.2,24.2c0,6.7,5.3,12.1,12,12.2c6.7,0,12.1-5.3,12.2-12c0.1-6.7-5.3-12.1-12-12.2
			C19.7,12.1,14.3,17.5,14.2,24.2z M26.3,34.7c-5.7,0-10.3-4.7-10.3-10.4c0-5.7,4.3-10.3,10-10.3c0.1,0,0.1,0,0.2,0l-0.1,10.3l9.3,5
			C34,32.3,30.3,34.7,26.3,34.7z M29.5,24.6l-0.9-0.5l0.7-2.2l1.5-1.5L29.5,24.6z M31.3,20l1.5-1.5l-2.2,6.7l-0.9-0.5L31.3,20z
			 M28.4,24l-0.7-0.4l1.2-1.2L28.4,24z M36.8,23.8c0,1.5-0.3,3-0.9,4.2l-0.5-0.3l1.4-4.4C36.8,23.5,36.8,23.6,36.8,23.8z M36.7,22.6
			l-1.6,5l-0.9-0.5l2.1-6.4C36.5,21.4,36.6,22,36.7,22.6z M36.1,20.4L34,27l-0.9-0.5l2.4-7.4C35.7,19.5,35.9,19.9,36.1,20.4z
			 M35.3,18.8l-2.5,7.6L32,25.9l2.6-8.1C34.9,18.1,35.1,18.4,35.3,18.8z M34,17.2c0.1,0.1,0.2,0.2,0.3,0.4l-2.7,8.2l-0.9-0.5
			l2.4-7.3L34,17.2z M27.5,14c2.2,0.1,4.3,0.9,5.6,2.2l-5.7,5.8L27.5,14z"/>
		<path class="st1" d="M50.7,45.1l-0.2-0.2L46,49.3l0.1,0.1l1.2,1.2c0.7,0.8,2.3,0.4,3.6-0.8c1.2-1.2,1.6-2.8,0.9-3.6L50.7,45.1
			L50.7,45.1z"/>
		<polygon class="st2" points="49.4,43.8 45,48.2 46,49.3 50.5,44.9 50.4,44.7 50.4,44.7 		"/>
		<path class="st3" d="M26.2,7.1C16.7,7,8.9,14.7,8.9,24.2c-0.1,9.5,7.6,17.3,17.1,17.3c3.5,0,6.8-1,9.5-2.8l9.5,9.5l4.5-4.4
			L40,34.4c2-2.8,3.3-6.2,3.3-10C43.4,14.9,35.7,7.1,26.2,7.1z M26.2,36.4c-6.7,0-12.1-5.5-12-12.2c0.1-6.7,5.5-12.1,12.2-12
			c6.7,0,12.1,5.5,12,12.2C38.4,31.1,32.9,36.4,26.2,36.4z"/>
		<path class="st1" d="M33.2,16.3c-1.4-1.3-3.4-2.2-5.6-2.2l-0.1,8.1L33.2,16.3z"/>
		<path class="st2" d="M26,14c-5.7,0-10,4.6-10,10.3c0,5.7,4.6,10.4,10.3,10.4c4,0,7.7-2.3,9.1-5.3l-9.3-5L26.2,14
			C26.1,14,26.1,14,26,14z"/>
		<polygon class="st2" points="30.6,25.2 32.8,18.4 31.3,20 29.8,24.7 		"/>
		<polygon class="st2" points="29.5,24.6 30.9,20.4 29.3,21.9 28.6,24.1 		"/>
		<path class="st2" d="M34,27l2.1-6.7c-0.2-0.4-0.4-0.9-0.6-1.3l-2.4,7.4L34,27z"/>
		<path class="st2" d="M35.1,27.6l1.6-5c-0.1-0.6-0.2-1.2-0.4-1.8l-2.1,6.4L35.1,27.6z"/>
		<path class="st2" d="M35.8,28c0.7-1.3,0.9-2.7,0.9-4.2c0-0.2,0-0.3,0-0.5l-1.4,4.4L35.8,28z"/>
		<path class="st2" d="M30.9,25.3l0.9,0.5l2.7-8.2c-0.1-0.1-0.2-0.3-0.3-0.4L33.2,18L30.9,25.3z"/>
		<polygon class="st2" points="28.9,22.4 27.7,23.6 28.4,24 		"/>
		<path class="st2" d="M32.9,26.4l2.5-7.6c-0.2-0.3-0.4-0.7-0.7-1L32,25.9L32.9,26.4z"/>
	</g>
</g>
</svg>
