<?xml version="1.0" encoding="utf-8"?>
<!-- Generator: Adobe Illustrator 27.9.6, SVG Export Plug-In . SVG Version: 9.03 Build 54986)  -->
<svg version="1.1" id="Layer_1" xmlns="http://www.w3.org/2000/svg" xmlns:xlink="http://www.w3.org/1999/xlink" x="0px" y="0px"
	 viewBox="0 0 33.8 26.7" style="enable-background:new 0 0 33.8 26.7;" xml:space="preserve">
<style type="text/css">
	.st0{fill:#0089A8;}
	.st1{fill:#99D5EE;}
	.st2{fill:#FFFFFF;}
	.st3{fill:#AFAFAF;}
</style>
<g>
	<g>
		<path class="st0" d="M169.8-7.1L169.8-7.1L169.8-7.1l6.2-6c-0.4-0.6-0.8-1.1-1.1-1.7l-6.5,6.4L169.8-7.1z"/>
	</g>
	<g>
		<path class="st0" d="M177.1-7.8l0.8,0.9l2.5-2.5c-0.6-0.3-1.2-0.7-1.8-1.1l-2.8,2.8C176.3-7.8,176.7-7.8,177.1-7.8z"/>
	</g>
	<g>
		
			<rect x="180.6" y="-5.9" transform="matrix(0.7123 -0.7019 0.7019 0.7123 55.9342 126.5995)" class="st0" width="3.6" height="2"/>
	</g>
	<g>
		<path class="st0" d="M185.9-6.9l1.4-1.3c-0.9,0.1-1.8,0.1-2.7,0L185.9-6.9z"/>
	</g>
	<g>
		<rect x="176.6" y="-1.9" transform="matrix(0.7121 -0.702 0.702 0.7121 52.0159 124.9707)" class="st0" width="3.6" height="2"/>
	</g>
	<g>
		<rect x="172.7" y="-6" transform="matrix(0.7122 -0.702 0.702 0.7122 53.7422 121.0564)" class="st0" width="3.6" height="2"/>
	</g>
	<g>
		<path class="st0" d="M198.2-7.7l-3.1-3.1l-2.6,2.6l3,3.1l0.1,0.1l0.1,0.1c0.3,0.3,0.8,0.5,1.2,0.5c0.5,0,0.9-0.2,1.3-0.5
			c0.4-0.3,0.5-0.8,0.5-1.3C198.7-6.9,198.5-7.3,198.2-7.7L198.2-7.7L198.2-7.7z"/>
	</g>
	<g>
		<path class="st0" d="M184.2,2.2L183,1l-2.6,2.6l1.1,1.1l0.1,0.1l0.1,0.1c0.7,0.6,1.8,0.6,2.5-0.1C184.9,4.1,184.9,3,184.2,2.2
			L184.2,2.2L184.2,2.2z"/>
	</g>
	<g>
		<path class="st0" d="M164.1-12.9c0.2,0.2,0.3,0.4,0.5,0.6c0.1,0.1,0.3,0.3,0.4,0.4l0.1,0.1l0.7,0.7l7.7-7.6l4.8-4.7l0,0l2.1-2
			l0.1-0.1c0-0.1,0.1-0.1,0.1-0.2c0.1-0.1,0.1-0.1,0.2-0.2l0.1-0.1c0-0.1,0.1-0.2,0.2-0.2c0.3-0.3,0.8-0.3,1.1,0l0,0l5.8,5.9
			l1.2,1.2c0.3,0.4,0.8,0.6,1.3,0.6c1,0,1.8-0.8,1.8-1.8c0-0.5-0.2-1-0.5-1.3l0,0l-7.2-7.4l0,0l0,0c-1.2-1.3-2.7-2.2-4.2-2.8
			c-1.4-0.6-2.8-0.9-4.3-0.9c-0.5,0-1,0-1.5,0.1c-0.5,0-0.9,0.1-1.4,0.2c-0.9,0-1.8-0.4-2.5-1.1l-1.6-1.6l-10.4,10.3l1.5,1.5
			l0.9,0.9c0.4,0.6,0.6,1.4,0.6,2.1v0.2c0,0.6,0,1.3,0.1,1.9c0.2,1.8,1,3.6,2.2,5.1l0,0L164.1-12.9z"/>
	</g>
	<g>
		<path class="st0" d="M187-2.9l-2.6,2.6l3.1,3.1l0.1,0.1l0.1,0.1c0.3,0.3,0.8,0.5,1.2,0.5c0.5,0,1-0.2,1.3-0.5
			c0.4-0.4,0.5-0.8,0.5-1.3s-0.2-0.9-0.5-1.2l-0.1-0.1l0,0l0,0l0,0L187-2.9z"/>
	</g>
	<g>
		<path class="st0" d="M190.1,0.2L190.1,0.2L190.1,0.2z"/>
	</g>
	<g>
		<path class="st0" d="M195-2.9l-3.9-4l-2.6,2.6l3.9,4l0,0c0.7,0.7,1.9,0.7,2.6,0C195.7-1,195.8-2.1,195-2.9L195-2.9z"/>
	</g>
	<g>
		<path class="st1" d="M201.6-23.5l1.5-1.5l-10.2-10.4l-1.6,1.6c-0.7,0.7-1.6,1-2.5,1c-0.5-0.1-0.9-0.2-1.4-0.2
			c-0.5-0.1-1-0.1-1.5-0.1c-1.9,0-3.7,0.5-5.4,1.3c1.5,0.6,3,1.5,4.2,2.8l0,0l0,0l7.2,7.4l0,0c0.3,0.3,0.5,0.8,0.5,1.3
			c0,1-0.8,1.8-1.8,1.8c-0.5,0-1-0.2-1.3-0.6l-1.2-1.1l-5.8-5.9l0,0c-0.3-0.3-0.8-0.3-1.1,0c-0.1,0.1-0.1,0.2-0.2,0.2l-0.1,0.1
			c-0.1,0.1-0.1,0.1-0.2,0.2c0,0.1-0.1,0.1-0.1,0.2l-0.1,0.1l-2.1,2l0,0l-4.8,4.7l-7.7,7.6l-2.6,2.6l0,0l0,0
			c-0.3,0.4-0.5,0.8-0.5,1.3c0,0.5,0.2,0.9,0.5,1.3c0.4,0.4,0.8,0.5,1.3,0.5c0.4,0,0.9-0.1,1.2-0.5l0.1-0.1L166-6l2.6-2.5l6.5-6.4
			c0.3,0.6,0.7,1.2,1.1,1.7l-6.1,6l-3.5,3.4l-0.1,0.1c-0.7,0.7-0.7,1.9,0,2.6s1.9,0.7,2.6,0l0,0l3.5-3.4l2.6-2.6l0.8-0.8l2.8-2.8
			c0.6,0.4,1.2,0.8,1.8,1.1l-2.5,2.5l-1.4,1.4l-2.6,2.6l-2.6,2.6l0,0l-0.1,0.1c-0.3,0.3-0.5,0.8-0.5,1.2c0,0.5,0.2,1,0.5,1.3
			c0.4,0.4,0.8,0.5,1.3,0.5c0.4,0,0.8-0.2,1.2-0.5L174,2l0.1-0.1l2.6-2.6l2.6-2.6l1.4-1.4l2.6-2.6l1.4-1.3c0.1,0,0.1,0,0.2,0
			c0.9,0.1,1.8,0.1,2.7,0l-1.4,1.3l-1.4,1.4l-2.6,2.6l-1.4,1.4l-2.6,2.6l-0.7,0.7l0,0l0,0c-0.7,0.7-0.7,1.9,0,2.6s1.7,0.7,2.5,0.1
			l0.1-0.1l0.1-0.1l0.6-0.6l2.6-2.6l1.4-1.4l2.6-2.6l1.4-1.4l2.6-2.6l0.6-0.6l0,0l0.9-0.8l2.6-2.6l1.2-1.2c0.2-0.2,0.4-0.3,0.6-0.5
			c0.2-0.2,0.4-0.4,0.5-0.6l0.2-0.2l0,0c1.2-1.5,2-3.2,2.2-5c0.1-0.6,0.1-1.3,0.1-1.9v-0.2c0-0.7,0.2-1.5,0.7-2.1L201.6-23.5z"/>
	</g>
</g>
<g>
	<g>
		<path class="st0" d="M15.4-149.3c0,0.2,0.1,0.5,0.4,0.5h2.4c0.2,0,0.3-0.1,0.4-0.3c1.1-5.8,5.8-10.4,11.7-11.5
			c0.2,0,0.3-0.2,0.3-0.4v-2.4c0-0.2-0.2-0.4-0.5-0.4C22.6-162.6,16.7-156.7,15.4-149.3z"/>
	</g>
	<g>
		<path class="st0" d="M50-142.6c-0.2,0-0.3,0.1-0.4,0.3c-1,6-5.8,10.8-11.9,11.9c-0.2,0-0.3,0.2-0.3,0.4v2.4c0,0.2,0.2,0.4,0.5,0.4
			c7.8-1.2,13.8-7.3,15-15c0-0.2-0.2-0.4-0.4-0.4H50z"/>
	</g>
	<g>
		<path class="st1" d="M44.4-142.6c-0.2,0-0.3,0.1-0.4,0.3c-0.8,3-3.3,5.4-6.3,6.4c-0.2,0-0.3,0.2-0.3,0.4v2.4
			c0,0.3,0.2,0.4,0.5,0.4c4.7-1,8.2-4.7,9.3-9.4c0.1-0.2-0.1-0.5-0.4-0.5C46.8-142.6,44.4-142.6,44.4-142.6z"/>
	</g>
	<path class="st0" d="M53.8-146.7c-0.3-0.3-0.7-0.5-1.1-0.5H40.4c-0.6-2.4-2.5-4.3-4.9-4.9v-12.4c0-0.8-0.7-1.5-1.6-1.5
		c-0.8,0-1.5,0.7-1.5,1.5v12.5c-2.4,0.6-4.3,2.4-4.9,4.9H15.3c-0.8,0-1.5,0.7-1.5,1.5c0,0.4,0.2,0.7,0.5,1.1
		c0.3,0.3,0.7,0.5,1.1,0.5h12.3c0.6,2.4,2.4,4.2,4.9,4.9v12.1c0,0.8,0.7,1.5,1.6,1.5l0,0l0,0c0.4,0,0.8-0.2,1.1-0.5
		c0.3-0.3,0.5-0.7,0.5-1.1v-12.1c2.4-0.6,4.3-2.4,4.9-4.9h12.4c0.8,0,1.6-0.7,1.6-1.5C54.3-145.9,54.1-146.3,53.8-146.7z M34-140.7
		c-2.6,0-4.8-2.2-4.8-4.8s2.2-4.8,4.8-4.8s4.8,2.2,4.8,4.8S36.6-140.7,34-140.7z"/>
	<g>
		<path class="st0" d="M37.9-163.9c-0.2,0-0.5,0.2-0.5,0.4v2.4c0,0.2,0.1,0.3,0.3,0.4c6,1.1,10.8,5.7,11.9,11.6
			c0,0.2,0.2,0.3,0.4,0.3h2.5c0.2,0,0.4-0.2,0.4-0.5C51.6-156.8,45.6-162.7,37.9-163.9z"/>
	</g>
	<g>
		<path class="st1" d="M37.5-157.9v2.4c0,0.2,0.1,0.3,0.3,0.4c3,0.8,5.3,3.2,6.2,6.1c0.1,0.2,0.2,0.3,0.4,0.3h2.5
			c0.3,0,0.4-0.2,0.4-0.5c-1.1-4.5-4.7-8-9.2-9.1C37.6-158.3,37.5-158.1,37.5-157.9z"/>
	</g>
	<g>
		<path class="st1" d="M24.3-142.3c-0.1-0.2-0.2-0.3-0.4-0.3h-2.5c-0.3,0-0.4,0.2-0.4,0.5c1,4.5,4.7,8,9.3,9.1
			c0.2,0.1,0.5-0.1,0.5-0.4v-2.4c0-0.2-0.1-0.3-0.3-0.4C27.5-137.1,25.2-139.4,24.3-142.3z"/>
	</g>
	<g>
		<path class="st0" d="M18.6-142.3c0-0.2-0.2-0.3-0.4-0.3h-2.4c-0.2,0-0.4,0.2-0.4,0.5c1.2,7.6,7.3,13.6,15,14.7
			c0.2,0,0.5-0.2,0.5-0.4v-2.4c0-0.2-0.1-0.3-0.3-0.4C24.4-131.7,19.7-136.4,18.6-142.3z"/>
	</g>
	<g>
		<path class="st1" d="M30.2-158.2c-4.5,1.1-8,4.5-9.1,8.9c-0.1,0.2,0.1,0.5,0.4,0.5H24c0.2,0,0.3-0.1,0.4-0.3c0.9-2.8,3.2-5.1,6-6
			c0.2-0.1,0.3-0.2,0.3-0.4v-2.4C30.6-158.1,30.3-158.3,30.2-158.2z"/>
	</g>
	<g>
		<path class="st2" d="M29.2-145.5c0,2.6,2.2,4.8,4.8,4.8s4.8-2.2,4.8-4.8s-2.2-4.8-4.8-4.8C31.4-150.2,29.2-148.1,29.2-145.5z"/>
	</g>
</g>
<polygon class="st3" points="30.9,11.9 30.9,3.5 16.9,14.9 2.9,3.5 2.9,11.9 16.9,23.3 "/>
</svg>
