<?xml version="1.0" encoding="utf-8"?>
<!-- Generator: Adobe Illustrator 27.9.6, SVG Export Plug-In . SVG Version: 9.03 Build 54986)  -->
<svg version="1.1" id="Layer_1" xmlns="http://www.w3.org/2000/svg" xmlns:xlink="http://www.w3.org/1999/xlink" x="0px" y="0px"
	 viewBox="0 0 110.5 26.5" style="enable-background:new 0 0 110.5 26.5;" xml:space="preserve">
<style type="text/css">
	.st0{fill:#DE8804;}
</style>
<g>
	<polygon class="st0" points="16.3,4.2 18.6,10.4 25.2,10.6 20,14.7 21.8,21 16.3,17.3 10.9,21 12.7,14.7 7.5,10.6 14.1,10.4 	"/>
</g>
<g>
	<polygon class="st0" points="36.8,4.2 39.1,10.4 45.7,10.6 40.4,14.7 42.3,21 36.8,17.3 31.3,21 33.2,14.7 27.9,10.6 34.6,10.4 	
		"/>
</g>
<g>
	<polygon class="st0" points="57.3,4.2 59.5,10.4 66.1,10.6 60.9,14.7 62.8,21 57.3,17.3 51.8,21 53.6,14.7 48.4,10.6 55,10.4 	"/>
</g>
<g>
	<polygon class="st0" points="77.8,4.2 80,10.4 86.6,10.6 81.4,14.7 83.2,21 77.8,17.3 72.3,21 74.1,14.7 68.9,10.6 75.5,10.4 	"/>
</g>
<g>
	<polygon class="st0" points="98.2,4.2 100.5,10.4 107.1,10.6 101.9,14.7 103.7,21 98.2,17.3 92.8,21 94.6,14.7 89.4,10.6 96,10.4 	
		"/>
</g>
</svg>
